  0
SECTION
  2
HEADER
  9
$ANGBASE
  50
0.0
  9
$ANGDIR
  70
1
  9
$MEASUREMENT
  70
1
  0
ENDSEC
  0
SECTION
  2
TABLES
  0
TABLE
  2
LTYPE
  70
4
  0
LTYPE
  5
40F
  2
CONTINUOUS
  70
0
  3
Solid line
  72
65
  73
0
  40
0.0
  0
LTYPE
  5
410
  2
DASHDOT
 70
0
  3
Dash Dot ____ _ ____ _
 72
65
 73
4
 40
2.0
 49
1.25
 49
-0.25
 49
0.25
 49
-0.25
  0
LTYPE
  5
411
  2
DASHED
 70
0
  3
Dashed __ __ __ __ __
 72
65
 73
2
 40
0.75
 49
0.5
 49
-0.25
  0
LTYPE
  5
43B
  2
DOTTED
 70
0
  3
Dotted .  .  .  .
 72
65
 73
2
 40
0.2
 49
0.0
 49
-0.2
  0
ENDTAB
  0
TABLE
  2
STYLE
  70
4
  0
STYLE
  2
KICAD
  70
0
  40
0
  41
1
  42
1
  50
0
  71
0
  3
isocp.shx
  0
STYLE
  2
KICADB
  70
0
  40
0
  41
1
  42
1
  50
0
  71
0
  3
isocp.shx
  0
STYLE
  2
KICADI
  70
0
  40
0
  41
1
  42
1
  50
15
  71
0
  3
isocp.shx
  0
STYLE
  2
KICADBI
  70
0
  40
0
  41
1
  42
1
  50
15
  71
0
  3
isocp.shx
  0
ENDTAB
  0
TABLE
  2
LAYER
  70
1
  0
LAYER
  2
BLACK
  70
0
  62
7
  6
CONTINUOUS
  0
ENDTAB
  0
ENDSEC
  0
SECTION
  2
ENTITIES
0
LINE
8
BLACK
6
CONTINUOUS
10
193.4242849999999976
20
-108.1280189999999948
11
193.4288589999999886
21
-108.2336239999999918
0
LINE
8
BLACK
6
CONTINUOUS
10
193.4288589999999886
20
-108.2336239999999918
11
193.451880999999986
21
-108.3741279999999989
0
LINE
8
BLACK
6
CONTINUOUS
10
193.451880999999986
20
-108.3741279999999989
11
193.50941499999999
21
-108.5300730000000016
0
LINE
8
BLACK
6
CONTINUOUS
10
193.50941499999999
20
-108.5300730000000016
11
193.5929689999999823
21
-108.6529719999999912
0
LINE
8
BLACK
6
CONTINUOUS
10
193.5929689999999823
20
-108.6529719999999912
11
193.6974679999999864
21
-108.745917999999989
0
LINE
8
BLACK
6
CONTINUOUS
10
193.6974679999999864
20
-108.745917999999989
11
193.8498149999999782
21
-108.8246869999999973
0
LINE
8
BLACK
6
CONTINUOUS
10
193.8498149999999782
20
-108.8246869999999973
11
194.0170469999999909
21
-108.8675209999999964
0
LINE
8
BLACK
6
CONTINUOUS
10
194.0170469999999909
20
-108.8675209999999964
11
194.1892529999999795
21
-108.8804579999999902
0
LINE
8
BLACK
6
CONTINUOUS
10
194.1892529999999795
20
-108.8804579999999902
11
194.3306409999999858
21
-108.8726459999999889
0
LINE
8
BLACK
6
CONTINUOUS
10
194.3306409999999858
20
-108.8726459999999889
11
194.5051430000000039
21
-108.8374469999999974
0
LINE
8
BLACK
6
CONTINUOUS
10
194.5051430000000039
20
-108.8374469999999974
11
194.6672059999999931
21
-108.7680000000000007
0
LINE
8
BLACK
6
CONTINUOUS
10
194.6672059999999931
20
-108.7680000000000007
11
194.7807349999999929
21
-108.6834729999999922
0
LINE
8
BLACK
6
CONTINUOUS
10
194.7807349999999929
20
-108.6834729999999922
11
194.8740159999999833
21
-108.5696379999999976
0
LINE
8
BLACK
6
CONTINUOUS
10
194.8740159999999833
20
-108.5696379999999976
11
194.9415889999999933
21
-108.4232109999999949
0
LINE
8
BLACK
6
CONTINUOUS
10
194.9415889999999933
20
-108.4232109999999949
11
194.9721119999999814
21
-108.290025
0
LINE
8
BLACK
6
CONTINUOUS
10
194.9721119999999814
20
-108.290025
11
194.9827980000000025
21
-108.135272999999998
0
LINE
8
BLACK
6
CONTINUOUS
10
194.9827980000000025
20
-108.135272999999998
11
194.9827980000000025
21
-106.419368999999989
0
LINE
8
BLACK
6
CONTINUOUS
10
194.9827980000000025
20
-106.419368999999989
11
195.3901960000000031
21
-106.419368999999989
0
LINE
8
BLACK
6
CONTINUOUS
10
195.3901960000000031
20
-106.419368999999989
11
195.3901960000000031
21
-108.180774999999997
0
LINE
8
BLACK
6
CONTINUOUS
10
195.3901960000000031
20
-108.180774999999997
11
195.3799689999999885
21
-108.3345020000000005
0
LINE
8
BLACK
6
CONTINUOUS
10
195.3799689999999885
20
-108.3345020000000005
11
195.3491070000000036
21
-108.4817219999999907
0
LINE
8
BLACK
6
CONTINUOUS
10
195.3491070000000036
20
-108.4817219999999907
11
195.2973379999999963
21
-108.620554999999996
0
LINE
8
BLACK
6
CONTINUOUS
10
195.2973379999999963
20
-108.620554999999996
11
195.2243909999999971
21
-108.7491189999999932
0
LINE
8
BLACK
6
CONTINUOUS
10
195.2243909999999971
20
-108.7491189999999932
11
195.1299949999999797
21
-108.8655329999999992
0
LINE
8
BLACK
6
CONTINUOUS
10
195.1299949999999797
20
-108.8655329999999992
11
195.013875999999982
21
-108.9679159999999882
0
LINE
8
BLACK
6
CONTINUOUS
10
195.013875999999982
20
-108.9679159999999882
11
194.8757640000000038
21
-109.0543879999999888
0
LINE
8
BLACK
6
CONTINUOUS
10
194.8757640000000038
20
-109.0543879999999888
11
194.7153869999999927
21
-109.1230649999999969
0
LINE
8
BLACK
6
CONTINUOUS
10
194.7153869999999927
20
-109.1230649999999969
11
194.5324729999999818
21
-109.1720679999999959
0
LINE
8
BLACK
6
CONTINUOUS
10
194.5324729999999818
20
-109.1720679999999959
11
194.3267510000000016
21
-109.1995159999999885
0
LINE
8
BLACK
6
CONTINUOUS
10
194.3267510000000016
20
-109.1995159999999885
11
194.1767969999999934
21
-109.2049099999999981
0
LINE
8
BLACK
6
CONTINUOUS
10
194.1767969999999934
20
-109.2049099999999981
11
194.0301010000000019
21
-109.1995280000000008
0
LINE
8
BLACK
6
CONTINUOUS
10
194.0301010000000019
20
-109.1995280000000008
11
193.8300099999999873
21
-109.1722570000000019
0
LINE
8
BLACK
6
CONTINUOUS
10
193.8300099999999873
20
-109.1722570000000019
11
193.6533660000000054
21
-109.1238379999999921
0
LINE
8
BLACK
6
CONTINUOUS
10
193.6533660000000054
20
-109.1238379999999921
11
193.499606
21
-109.0563959999999923
0
LINE
8
BLACK
6
CONTINUOUS
10
193.499606
20
-109.0563959999999923
11
193.3681689999999946
21
-108.9720579999999899
0
LINE
8
BLACK
6
CONTINUOUS
10
193.3681689999999946
20
-108.9720579999999899
11
193.2584929999999872
21
-108.8729489999999913
0
LINE
8
BLACK
6
CONTINUOUS
10
193.2584929999999872
20
-108.8729489999999913
11
193.1700179999999989
21
-108.761193999999989
0
LINE
8
BLACK
6
CONTINUOUS
10
193.1700179999999989
20
-108.761193999999989
11
193.1021810000000016
21
-108.6389199999999988
0
LINE
8
BLACK
6
CONTINUOUS
10
193.1021810000000016
20
-108.6389199999999988
11
193.0544219999999882
21
-108.5082510000000013
0
LINE
8
BLACK
6
CONTINUOUS
10
193.0544219999999882
20
-108.5082510000000013
11
193.0261779999999874
21
-108.3713139999999981
0
LINE
8
BLACK
6
CONTINUOUS
10
193.0261779999999874
20
-108.3713139999999981
11
193.0168879999999945
21
-108.2302339999999958
0
LINE
8
BLACK
6
CONTINUOUS
10
193.0168879999999945
20
-108.2302339999999958
11
193.0168879999999945
21
-106.419368999999989
0
LINE
8
BLACK
6
CONTINUOUS
10
193.0168879999999945
20
-106.419368999999989
11
193.4242849999999976
21
-106.419368999999989
0
LINE
8
BLACK
6
CONTINUOUS
10
193.4242849999999976
20
-106.419368999999989
11
193.4242849999999976
21
-108.1280189999999948
0
LINE
8
BLACK
6
CONTINUOUS
10
197.2468649999999855
20
-106.3414159999999953
11
197.41265199999998
21
-106.3599719999999991
0
LINE
8
BLACK
6
CONTINUOUS
10
197.41265199999998
20
-106.3599719999999991
11
197.5587069999999983
21
-106.3893999999999949
0
LINE
8
BLACK
6
CONTINUOUS
10
197.5587069999999983
20
-106.3893999999999949
11
197.7435529999999915
21
-106.4512519999999967
0
LINE
8
BLACK
6
CONTINUOUS
10
197.7435529999999915
20
-106.4512519999999967
11
197.8911009999999919
21
-106.5306779999999947
0
LINE
8
BLACK
6
CONTINUOUS
10
197.8911009999999919
20
-106.5306779999999947
11
198.0056119999999851
21
-106.6235449999999929
0
LINE
8
BLACK
6
CONTINUOUS
10
198.0056119999999851
20
-106.6235449999999929
11
198.1142659999999864
21
-106.7611309999999918
0
LINE
8
BLACK
6
CONTINUOUS
10
198.1142659999999864
20
-106.7611309999999918
11
198.181857999999977
21
-106.9054629999999975
0
LINE
8
BLACK
6
CONTINUOUS
10
198.181857999999977
20
-106.9054629999999975
11
198.2184859999999844
21
-107.0467429999999922
0
LINE
8
BLACK
6
CONTINUOUS
10
198.2184859999999844
20
-107.0467429999999922
11
198.2361129999999889
21
-107.2041210000000007
0
LINE
8
BLACK
6
CONTINUOUS
10
198.2361129999999889
20
-107.2041210000000007
11
197.8536289999999838
21
-107.2041210000000007
0
LINE
8
BLACK
6
CONTINUOUS
10
197.8536289999999838
20
-107.2041210000000007
11
197.8385389999999973
21
-107.0929069999999967
0
LINE
8
BLACK
6
CONTINUOUS
10
197.8385389999999973
20
-107.0929069999999967
11
197.7918980000000033
21
-106.966984999999994
0
LINE
8
BLACK
6
CONTINUOUS
10
197.7918980000000033
20
-106.966984999999994
11
197.697780999999992
21
-106.8429609999999883
0
LINE
8
BLACK
6
CONTINUOUS
10
197.697780999999992
20
-106.8429609999999883
11
197.5726990000000001
21
-106.7526979999999952
0
LINE
8
BLACK
6
CONTINUOUS
10
197.5726990000000001
20
-106.7526979999999952
11
197.4261099999999942
21
-106.6926349999999957
0
LINE
8
BLACK
6
CONTINUOUS
10
197.4261099999999942
20
-106.6926349999999957
11
197.2674719999999979
21
-106.6592100000000016
0
LINE
8
BLACK
6
CONTINUOUS
10
197.2674719999999979
20
-106.6592100000000016
11
197.1062459999999987
21
-106.6488599999999991
0
LINE
8
BLACK
6
CONTINUOUS
10
197.1062459999999987
20
-106.6488599999999991
11
197.0562479999999823
21
-106.6496859999999884
0
LINE
8
BLACK
6
CONTINUOUS
10
197.0562479999999823
20
-106.6496859999999884
11
196.8904339999999991
21
-106.6654279999999915
0
LINE
8
BLACK
6
CONTINUOUS
10
196.8904339999999991
20
-106.6654279999999915
11
196.747398000000004
21
-106.6999579999999952
0
LINE
8
BLACK
6
CONTINUOUS
10
196.747398000000004
20
-106.6999579999999952
11
196.6147939999999892
21
-106.7609080000000006
0
LINE
8
BLACK
6
CONTINUOUS
10
196.6147939999999892
20
-106.7609080000000006
11
196.5065400000000011
21
-106.8547979999999882
0
LINE
8
BLACK
6
CONTINUOUS
10
196.5065400000000011
20
-106.8547979999999882
11
196.4365579999999909
21
-106.9881499999999903
0
LINE
8
BLACK
6
CONTINUOUS
10
196.4365579999999909
20
-106.9881499999999903
11
196.4174809999999809
21
-107.1276239999999973
0
LINE
8
BLACK
6
CONTINUOUS
10
196.4174809999999809
20
-107.1276239999999973
11
196.4299809999999979
21
-107.2254399999999919
0
LINE
8
BLACK
6
CONTINUOUS
10
196.4299809999999979
20
-107.2254399999999919
11
196.5055839999999989
21
-107.3524879999999939
0
LINE
8
BLACK
6
CONTINUOUS
10
196.5055839999999989
20
-107.3524879999999939
11
196.628546
21
-107.4300059999999917
0
LINE
8
BLACK
6
CONTINUOUS
10
196.628546
20
-107.4300059999999917
11
196.7743199999999888
21
-107.4738389999999981
0
LINE
8
BLACK
6
CONTINUOUS
10
196.7743199999999888
20
-107.4738389999999981
11
197.6352760000000046
21
-107.6525509999999883
0
LINE
8
BLACK
6
CONTINUOUS
10
197.6352760000000046
20
-107.6525509999999883
11
197.7768429999999853
21
-107.6901659999999907
0
LINE
8
BLACK
6
CONTINUOUS
10
197.7768429999999853
20
-107.6901659999999907
11
197.9376019999999983
21
-107.7557860000000005
0
LINE
8
BLACK
6
CONTINUOUS
10
197.9376019999999983
20
-107.7557860000000005
11
198.0761189999999772
21
-107.8440459999999916
0
LINE
8
BLACK
6
CONTINUOUS
10
198.0761189999999772
20
-107.8440459999999916
11
198.1878499999999974
21
-107.9570609999999959
0
LINE
8
BLACK
6
CONTINUOUS
10
198.1878499999999974
20
-107.9570609999999959
11
198.2682499999999948
21
-108.0969419999999985
0
LINE
8
BLACK
6
CONTINUOUS
10
198.2682499999999948
20
-108.0969419999999985
11
198.3069569999999828
21
-108.2296109999999913
0
LINE
8
BLACK
6
CONTINUOUS
10
198.3069569999999828
20
-108.2296109999999913
11
198.3203769999999793
21
-108.3819089999999932
0
LINE
8
BLACK
6
CONTINUOUS
10
198.3203769999999793
20
-108.3819089999999932
11
198.3127949999999942
21
-108.4975449999999881
0
LINE
8
BLACK
6
CONTINUOUS
10
198.3127949999999942
20
-108.4975449999999881
11
198.274848999999989
21
-108.6513539999999978
0
LINE
8
BLACK
6
CONTINUOUS
10
198.274848999999989
20
-108.6513539999999978
11
198.2085789999999861
21
-108.7828679999999935
0
LINE
8
BLACK
6
CONTINUOUS
10
198.2085789999999861
20
-108.7828679999999935
11
198.1179939999999817
21
-108.8935259999999943
0
LINE
8
BLACK
6
CONTINUOUS
10
198.1179939999999817
20
-108.8935259999999943
11
198.0071049999999957
21
-108.9847649999999959
0
LINE
8
BLACK
6
CONTINUOUS
10
198.0071049999999957
20
-108.9847649999999959
11
197.8799219999999934
21
-109.058021999999994
0
LINE
8
BLACK
6
CONTINUOUS
10
197.8799219999999934
20
-109.058021999999994
11
197.7404549999999972
21
-109.1147359999999935
0
LINE
8
BLACK
6
CONTINUOUS
10
197.7404549999999972
20
-109.1147359999999935
11
197.5927149999999983
21
-109.15634399999999
0
LINE
8
BLACK
6
CONTINUOUS
10
197.5927149999999983
20
-109.15634399999999
11
197.4407099999999957
21
-109.1842829999999935
0
LINE
8
BLACK
6
CONTINUOUS
10
197.4407099999999957
20
-109.1842829999999935
11
197.2884530000000041
21
-109.1999929999999921
0
LINE
8
BLACK
6
CONTINUOUS
10
197.2884530000000041
20
-109.1999929999999921
11
197.1399509999999964
21
-109.2049099999999981
0
LINE
8
BLACK
6
CONTINUOUS
10
197.1399509999999964
20
-109.2049099999999981
11
196.9914849999999831
21
-109.2010870000000011
0
LINE
8
BLACK
6
CONTINUOUS
10
196.9914849999999831
20
-109.2010870000000011
11
196.8192880000000002
21
-109.1852469999999897
0
LINE
8
BLACK
6
CONTINUOUS
10
196.8192880000000002
20
-109.1852469999999897
11
196.6412119999999959
21
-109.1513549999999952
0
LINE
8
BLACK
6
CONTINUOUS
10
196.6412119999999959
20
-109.1513549999999952
11
196.4989589999999851
21
-109.1059190000000001
0
LINE
8
BLACK
6
CONTINUOUS
10
196.4989589999999851
20
-109.1059190000000001
11
196.3488109999999836
21
-109.0313079999999957
0
LINE
8
BLACK
6
CONTINUOUS
10
196.3488109999999836
20
-109.0313079999999957
11
196.2284369999999853
21
-108.9444249999999954
0
LINE
8
BLACK
6
CONTINUOUS
10
196.2284369999999853
20
-108.9444249999999954
11
196.1827269999999999
21
-108.9050099999999901
0
LINE
8
BLACK
6
CONTINUOUS
10
196.1827269999999999
20
-108.9050099999999901
11
196.0722739999999931
21
-108.7840329999999938
0
LINE
8
BLACK
6
CONTINUOUS
10
196.0722739999999931
20
-108.7840329999999938
11
195.9970619999999997
21
-108.6586739999999907
0
LINE
8
BLACK
6
CONTINUOUS
10
195.9970619999999997
20
-108.6586739999999907
11
195.9509449999999902
21
-108.5285679999999928
0
LINE
8
BLACK
6
CONTINUOUS
10
195.9509449999999902
20
-108.5285679999999928
11
195.9277799999999843
21
-108.3933509999999956
0
LINE
8
BLACK
6
CONTINUOUS
10
195.9277799999999843
20
-108.3933509999999956
11
195.9214240000000018
21
-108.2526560000000018
0
LINE
8
BLACK
6
CONTINUOUS
10
195.9214240000000018
20
-108.2526560000000018
11
196.3039079999999785
21
-108.2526560000000018
0
LINE
8
BLACK
6
CONTINUOUS
10
196.3039079999999785
20
-108.2526560000000018
11
196.3090049999999849
21
-108.3413379999999933
0
LINE
8
BLACK
6
CONTINUOUS
10
196.3090049999999849
20
-108.3413379999999933
11
196.3475660000000005
21
-108.4952880000000022
0
LINE
8
BLACK
6
CONTINUOUS
10
196.3475660000000005
20
-108.4952880000000022
11
196.4190189999999916
21
-108.6200249999999983
0
LINE
8
BLACK
6
CONTINUOUS
10
196.4190189999999916
20
-108.6200249999999983
11
196.5455739999999878
21
-108.7385419999999954
0
LINE
8
BLACK
6
CONTINUOUS
10
196.5455739999999878
20
-108.7385419999999954
11
196.7027229999999918
21
-108.8198909999999984
0
LINE
8
BLACK
6
CONTINUOUS
10
196.7027229999999918
20
-108.8198909999999984
11
196.8427039999999977
21
-108.8613749999999953
0
LINE
8
BLACK
6
CONTINUOUS
10
196.8427039999999977
20
-108.8613749999999953
11
196.9889529999999809
21
-108.8844969999999961
0
LINE
8
BLACK
6
CONTINUOUS
10
196.9889529999999809
20
-108.8844969999999961
11
197.1355549999999823
21
-108.8916679999999957
0
LINE
8
BLACK
6
CONTINUOUS
10
197.1355549999999823
20
-108.8916679999999957
11
197.2229499999999973
21
-108.8896499999999889
0
LINE
8
BLACK
6
CONTINUOUS
10
197.2229499999999973
20
-108.8896499999999889
11
197.382930999999985
21
-108.8748319999999978
0
LINE
8
BLACK
6
CONTINUOUS
10
197.382930999999985
20
-108.8748319999999978
11
197.5469640000000027
21
-108.840644999999995
0
LINE
8
BLACK
6
CONTINUOUS
10
197.5469640000000027
20
-108.840644999999995
11
197.6990659999999878
21
-108.7812629999999956
0
LINE
8
BLACK
6
CONTINUOUS
10
197.6990659999999878
20
-108.7812629999999956
11
197.823254999999989
21
-108.6908609999999982
0
LINE
8
BLACK
6
CONTINUOUS
10
197.823254999999989
20
-108.6908609999999982
11
197.9035470000000032
21
-108.563611999999992
0
LINE
8
BLACK
6
CONTINUOUS
10
197.9035470000000032
20
-108.563611999999992
11
197.9254359999999906
21
-108.431367999999992
0
LINE
8
BLACK
6
CONTINUOUS
10
197.9254359999999906
20
-108.431367999999992
11
197.9138829999999984
21
-108.3112289999999973
0
LINE
8
BLACK
6
CONTINUOUS
10
197.9138829999999984
20
-108.3112289999999973
11
197.8527159999999867
21
-108.1816069999999996
0
LINE
8
BLACK
6
CONTINUOUS
10
197.8527159999999867
20
-108.1816069999999996
11
197.7276469999999904
21
-108.0850719999999967
0
LINE
8
BLACK
6
CONTINUOUS
10
197.7276469999999904
20
-108.0850719999999967
11
197.5922049999999786
21
-108.0290799999999933
0
LINE
8
BLACK
6
CONTINUOUS
10
197.5922049999999786
20
-108.0290799999999933
11
197.4526579999999853
21
-107.9883759999999882
0
LINE
8
BLACK
6
CONTINUOUS
10
197.4526579999999853
20
-107.9883759999999882
11
197.2828329999999823
21
-107.948646999999994
0
LINE
8
BLACK
6
CONTINUOUS
10
197.2828329999999823
20
-107.948646999999994
11
196.6651430000000005
21
-107.8193929999999909
0
LINE
8
BLACK
6
CONTINUOUS
10
196.6651430000000005
20
-107.8193929999999909
11
196.6037299999999846
21
-107.8052809999999937
0
LINE
8
BLACK
6
CONTINUOUS
10
196.6037299999999846
20
-107.8052809999999937
11
196.4553289999999777
21
-107.7585380000000015
0
LINE
8
BLACK
6
CONTINUOUS
10
196.4553289999999777
20
-107.7585380000000015
11
196.3219179999999824
21
-107.6944629999999989
0
LINE
8
BLACK
6
CONTINUOUS
10
196.3219179999999824
20
-107.6944629999999989
11
196.1965909999999838
21
-107.6010469999999941
0
LINE
8
BLACK
6
CONTINUOUS
10
196.1965909999999838
20
-107.6010469999999941
11
196.0952289999999891
21
-107.4721899999999977
0
LINE
8
BLACK
6
CONTINUOUS
10
196.0952289999999891
20
-107.4721899999999977
11
196.0420680000000004
21
-107.3394899999999978
0
LINE
8
BLACK
6
CONTINUOUS
10
196.0420680000000004
20
-107.3394899999999978
11
196.0225399999999922
21
-107.1770839999999936
0
LINE
8
BLACK
6
CONTINUOUS
10
196.0225399999999922
20
-107.1770839999999936
11
196.0371289999999931
21
-107.018777
0
LINE
8
BLACK
6
CONTINUOUS
10
196.0371289999999931
20
-107.018777
11
196.0818229999999858
21
-106.8660569999999979
0
LINE
8
BLACK
6
CONTINUOUS
10
196.0818229999999858
20
-106.8660569999999979
11
196.1580119999999852
21
-106.7237089999999995
0
LINE
8
BLACK
6
CONTINUOUS
10
196.1580119999999852
20
-106.7237089999999995
11
196.2670880000000011
21
-106.5965149999999966
0
LINE
8
BLACK
6
CONTINUOUS
10
196.2670880000000011
20
-106.5965149999999966
11
196.4104429999999866
21
-106.4892600000000016
0
LINE
8
BLACK
6
CONTINUOUS
10
196.4104429999999866
20
-106.4892600000000016
11
196.5412900000000036
21
-106.4247799999999984
0
LINE
8
BLACK
6
CONTINUOUS
10
196.5412900000000036
20
-106.4247799999999984
11
196.6927879999999789
21
-106.3762249999999909
0
LINE
8
BLACK
6
CONTINUOUS
10
196.6927879999999789
20
-106.3762249999999909
11
196.8655239999999935
21
-106.3456119999999885
0
LINE
8
BLACK
6
CONTINUOUS
10
196.8655239999999935
20
-106.3456119999999885
11
197.0600839999999891
21
-106.3349589999999978
0
LINE
8
BLACK
6
CONTINUOUS
10
197.0600839999999891
20
-106.3349589999999978
11
197.2468649999999855
21
-106.3414159999999953
0
LINE
8
BLACK
6
CONTINUOUS
10
200.2552450000000022
20
-106.4229839999999996
11
200.4406060000000025
21
-106.4507539999999892
0
LINE
8
BLACK
6
CONTINUOUS
10
200.4406060000000025
20
-106.4507539999999892
11
200.6001029999999901
21
-106.5033629999999931
0
LINE
8
BLACK
6
CONTINUOUS
10
200.6001029999999901
20
-106.5033629999999931
11
200.7335309999999993
21
-106.5777479999999997
0
LINE
8
BLACK
6
CONTINUOUS
10
200.7335309999999993
20
-106.5777479999999997
11
200.8406839999999818
21
-106.6708519999999965
0
LINE
8
BLACK
6
CONTINUOUS
10
200.8406839999999818
20
-106.6708519999999965
11
200.9373619999999789
21
-106.8088889999999935
0
LINE
8
BLACK
6
CONTINUOUS
10
200.9373619999999789
20
-106.8088889999999935
11
200.9922599999999875
21
-106.9654139999999956
0
LINE
8
BLACK
6
CONTINUOUS
10
200.9922599999999875
20
-106.9654139999999956
11
201.0058269999999823
21
-107.0999269999999939
0
LINE
8
BLACK
6
CONTINUOUS
10
201.0058269999999823
20
-107.0999269999999939
11
200.9894319999999936
21
-107.2420499999999919
0
LINE
8
BLACK
6
CONTINUOUS
10
200.9894319999999936
20
-107.2420499999999919
11
200.9391729999999825
21
-107.3751460000000009
0
LINE
8
BLACK
6
CONTINUOUS
10
200.9391729999999825
20
-107.3751460000000009
11
200.860038000000003
21
-107.4867849999999976
0
LINE
8
BLACK
6
CONTINUOUS
10
200.860038000000003
20
-107.4867849999999976
11
200.7397909999999968
21
-107.5887089999999944
0
LINE
8
BLACK
6
CONTINUOUS
10
200.7397909999999968
20
-107.5887089999999944
11
200.6028259999999932
21
-107.6611240000000009
0
LINE
8
BLACK
6
CONTINUOUS
10
200.6028259999999932
20
-107.6611240000000009
11
200.6217340000000036
21
-107.6680259999999976
0
LINE
8
BLACK
6
CONTINUOUS
10
200.6217340000000036
20
-107.6680259999999976
11
200.7712739999999769
21
-107.7293979999999891
0
LINE
8
BLACK
6
CONTINUOUS
10
200.7712739999999769
20
-107.7293979999999891
11
200.9067119999999989
21
-107.8097279999999927
0
LINE
8
BLACK
6
CONTINUOUS
10
200.9067119999999989
20
-107.8097279999999927
11
201.0095769999999789
21
-107.9048659999999984
0
LINE
8
BLACK
6
CONTINUOUS
10
201.0095769999999789
20
-107.9048659999999984
11
201.091132999999985
21
-108.0326239999999984
0
LINE
8
BLACK
6
CONTINUOUS
10
201.091132999999985
20
-108.0326239999999984
11
201.1333379999999806
21
-108.1627199999999931
0
LINE
8
BLACK
6
CONTINUOUS
10
201.1333379999999806
20
-108.1627199999999931
11
201.1487089999999966
21
-108.3212389999999914
0
LINE
8
BLACK
6
CONTINUOUS
10
201.1487089999999966
20
-108.3212389999999914
11
201.1393199999999979
21
-108.4410749999999979
0
LINE
8
BLACK
6
CONTINUOUS
10
201.1393199999999979
20
-108.4410749999999979
11
201.0978769999999827
21
-108.5927849999999921
0
LINE
8
BLACK
6
CONTINUOUS
10
201.0978769999999827
20
-108.5927849999999921
11
201.023887000000002
21
-108.7320619999999991
0
LINE
8
BLACK
6
CONTINUOUS
10
201.023887000000002
20
-108.7320619999999991
11
200.9179110000000037
21
-108.8554060000000021
0
LINE
8
BLACK
6
CONTINUOUS
10
200.9179110000000037
20
-108.8554060000000021
11
200.7805050000000051
21
-108.9593169999999986
0
LINE
8
BLACK
6
CONTINUOUS
10
200.7805050000000051
20
-108.9593169999999986
11
200.6122279999999876
21
-109.0402919999999938
0
LINE
8
BLACK
6
CONTINUOUS
10
200.6122279999999876
20
-109.0402919999999938
11
200.4660959999999932
21
-109.0838669999999979
0
LINE
8
BLACK
6
CONTINUOUS
10
200.4660959999999932
20
-109.0838669999999979
11
200.3031489999999906
21
-109.1110949999999917
0
LINE
8
BLACK
6
CONTINUOUS
10
200.3031489999999906
20
-109.1110949999999917
11
200.1236219999999832
21
-109.1204999999999927
0
LINE
8
BLACK
6
CONTINUOUS
10
200.1236219999999832
20
-109.1204999999999927
11
198.8259599999999807
21
-109.1204999999999927
0
LINE
8
BLACK
6
CONTINUOUS
10
198.8259599999999807
20
-109.1204999999999927
11
198.8259599999999807
21
-108.8072579999999903
0
LINE
8
BLACK
6
CONTINUOUS
10
198.8259599999999807
20
-108.8072579999999903
11
198.8259599999999807
21
-107.5589079999999882
0
LINE
8
BLACK
6
CONTINUOUS
10
198.8259599999999807
20
-107.5589079999999882
11
198.8259599999999807
21
-106.419368999999989
0
LINE
8
BLACK
6
CONTINUOUS
10
198.8259599999999807
20
-106.419368999999989
11
200.1529309999999953
21
-106.419368999999989
0
LINE
8
BLACK
6
CONTINUOUS
10
200.1529309999999953
20
-106.419368999999989
11
200.2552450000000022
21
-106.4229839999999996
0
LINE
8
BLACK
6
CONTINUOUS
10
199.2333569999999838
20
-108.8072579999999903
11
200.102373
21
-108.8072579999999903
0
LINE
8
BLACK
6
CONTINUOUS
10
200.102373
20
-108.8072579999999903
11
200.2516329999999982
21
-108.7983949999999993
0
LINE
8
BLACK
6
CONTINUOUS
10
200.2516329999999982
20
-108.7983949999999993
11
200.4104899999999816
21
-108.7634259999999955
0
LINE
8
BLACK
6
CONTINUOUS
10
200.4104899999999816
20
-108.7634259999999955
11
200.560307999999992
21
-108.6889520000000005
0
LINE
8
BLACK
6
CONTINUOUS
10
200.560307999999992
20
-108.6889520000000005
11
200.6654149999999959
21
-108.5821409999999929
0
LINE
8
BLACK
6
CONTINUOUS
10
200.6654149999999959
20
-108.5821409999999929
11
200.7256069999999966
21
-108.4463049999999953
0
LINE
8
BLACK
6
CONTINUOUS
10
200.7256069999999966
20
-108.4463049999999953
11
200.7413119999999935
21
-108.3133259999999893
0
LINE
8
BLACK
6
CONTINUOUS
10
200.7413119999999935
20
-108.3133259999999893
11
200.7154819999999802
21
-108.1566689999999937
0
LINE
8
BLACK
6
CONTINUOUS
10
200.7154819999999802
20
-108.1566689999999937
11
200.6255459999999857
21
-108.0201099999999883
0
LINE
8
BLACK
6
CONTINUOUS
10
200.6255459999999857
20
-108.0201099999999883
11
200.486914999999982
21
-107.9311329999999884
0
LINE
8
BLACK
6
CONTINUOUS
10
200.486914999999982
20
-107.9311329999999884
11
200.3461079999999868
21
-107.8868229999999926
0
LINE
8
BLACK
6
CONTINUOUS
10
200.3461079999999868
20
-107.8868229999999926
11
200.1925139999999885
21
-107.8640669999999915
0
LINE
8
BLACK
6
CONTINUOUS
10
200.1925139999999885
20
-107.8640669999999915
11
200.035695000000004
21
-107.8576419999999985
0
LINE
8
BLACK
6
CONTINUOUS
10
200.035695000000004
20
-107.8576419999999985
11
199.2333569999999838
21
-107.8576419999999985
0
LINE
8
BLACK
6
CONTINUOUS
10
199.2333569999999838
20
-107.8576419999999985
11
199.2333569999999838
21
-108.8072579999999903
0
LINE
8
BLACK
6
CONTINUOUS
10
199.2333569999999838
20
-107.5589079999999882
11
199.9682829999999853
21
-107.5589079999999882
0
LINE
8
BLACK
6
CONTINUOUS
10
199.9682829999999853
20
-107.5589079999999882
11
200.0740710000000036
21
-107.5560619999999972
0
LINE
8
BLACK
6
CONTINUOUS
10
200.0740710000000036
20
-107.5560619999999972
11
200.2315049999999985
21
-107.5374860000000012
0
LINE
8
BLACK
6
CONTINUOUS
10
200.2315049999999985
20
-107.5374860000000012
11
200.3867750000000001
21
-107.4889719999999897
0
LINE
8
BLACK
6
CONTINUOUS
10
200.3867750000000001
20
-107.4889719999999897
11
200.517093999999986
21
-107.3901839999999908
0
LINE
8
BLACK
6
CONTINUOUS
10
200.517093999999986
20
-107.3901839999999908
11
200.5812190000000044
21
-107.2638869999999969
0
LINE
8
BLACK
6
CONTINUOUS
10
200.5812190000000044
20
-107.2638869999999969
11
200.5984299999999791
21
-107.125645999999989
0
LINE
8
BLACK
6
CONTINUOUS
10
200.5984299999999791
20
-107.125645999999989
11
200.5937999999999874
21
-107.0582149999999899
0
LINE
8
BLACK
6
CONTINUOUS
10
200.5937999999999874
20
-107.0582149999999899
11
200.544651999999985
21
-106.9238909999999976
0
LINE
8
BLACK
6
CONTINUOUS
10
200.544651999999985
20
-106.9238909999999976
11
200.4362699999999791
21
-106.8235650000000021
0
LINE
8
BLACK
6
CONTINUOUS
10
200.4362699999999791
20
-106.8235650000000021
11
200.2910289999999804
21
-106.7662949999999995
0
LINE
8
BLACK
6
CONTINUOUS
10
200.2910289999999804
20
-106.7662949999999995
11
200.1297889999999882
21
-106.739879000000002
0
LINE
8
BLACK
6
CONTINUOUS
10
200.1297889999999882
20
-106.739879000000002
11
199.9726799999999969
21
-106.7332699999999903
0
LINE
8
BLACK
6
CONTINUOUS
10
199.9726799999999969
20
-106.7332699999999903
11
199.2333569999999838
21
-106.7332699999999903
0
LINE
8
BLACK
6
CONTINUOUS
10
199.2333569999999838
20
-106.7332699999999903
11
199.2333569999999838
21
-107.5589079999999882
0
LINE
8
BLACK
6
CONTINUOUS
10
106.9199619999999982
20
-106.5841470000000015
11
107.1051289999999909
21
-106.6270939999999996
0
LINE
8
BLACK
6
CONTINUOUS
10
107.1051289999999909
20
-106.6270939999999996
11
107.2606129999999922
21
-106.7016890000000018
0
LINE
8
BLACK
6
CONTINUOUS
10
107.2606129999999922
20
-106.7016890000000018
11
107.3888149999999939
21
-106.8030009999999947
0
LINE
8
BLACK
6
CONTINUOUS
10
107.3888149999999939
20
-106.8030009999999947
11
107.4921349999999904
21
-106.9261029999999977
0
LINE
8
BLACK
6
CONTINUOUS
10
107.4921349999999904
20
-106.9261029999999977
11
107.5729740000000021
21
-107.0660619999999881
0
LINE
8
BLACK
6
CONTINUOUS
10
107.5729740000000021
20
-107.0660619999999881
11
107.6337309999999974
21
-107.2179509999999993
0
LINE
8
BLACK
6
CONTINUOUS
10
107.6337309999999974
20
-107.2179509999999993
11
107.6768089999999916
21
-107.3768389999999897
0
LINE
8
BLACK
6
CONTINUOUS
10
107.6768089999999916
20
-107.3768389999999897
11
107.7046059999999983
21
-107.5377979999999951
0
LINE
8
BLACK
6
CONTINUOUS
10
107.7046059999999983
20
-107.5377979999999951
11
107.7195239999999927
21
-107.6958959999999905
0
LINE
8
BLACK
6
CONTINUOUS
10
107.7195239999999927
20
-107.6958959999999905
11
107.7239629999999977
21
-107.8462049999999977
0
LINE
8
BLACK
6
CONTINUOUS
10
107.7239629999999977
20
-107.8462049999999977
11
107.7195239999999927
21
-107.996342999999996
0
LINE
8
BLACK
6
CONTINUOUS
10
107.7195239999999927
20
-107.996342999999996
11
107.7046059999999983
21
-108.1542729999999892
0
LINE
8
BLACK
6
CONTINUOUS
10
107.7046059999999983
20
-108.1542729999999892
11
107.6768089999999916
21
-108.315068999999994
0
LINE
8
BLACK
6
CONTINUOUS
10
107.6768089999999916
20
-108.315068999999994
11
107.6337309999999974
21
-108.4738040000000012
0
LINE
8
BLACK
6
CONTINUOUS
10
107.6337309999999974
20
-108.4738040000000012
11
107.5729740000000021
21
-108.625551999999999
0
LINE
8
BLACK
6
CONTINUOUS
10
107.5729740000000021
20
-108.625551999999999
11
107.4921349999999904
21
-108.7653859999999924
0
LINE
8
BLACK
6
CONTINUOUS
10
107.4921349999999904
20
-108.7653859999999924
11
107.3888149999999939
21
-108.8883790000000005
0
LINE
8
BLACK
6
CONTINUOUS
10
107.3888149999999939
20
-108.8883790000000005
11
107.2606129999999922
21
-108.9896049999999974
0
LINE
8
BLACK
6
CONTINUOUS
10
107.2606129999999922
20
-108.9896049999999974
11
107.1051289999999909
21
-109.0641369999999881
0
LINE
8
BLACK
6
CONTINUOUS
10
107.1051289999999909
20
-109.0641369999999881
11
106.9199619999999982
21
-109.1070489999999893
0
LINE
8
BLACK
6
CONTINUOUS
10
106.9199619999999982
20
-109.1070489999999893
11
106.7788409999999999
21
-109.1156569999999988
0
LINE
8
BLACK
6
CONTINUOUS
10
106.7788409999999999
20
-109.1156569999999988
11
106.6377279999999956
21
-109.1070489999999893
0
LINE
8
BLACK
6
CONTINUOUS
10
106.6377279999999956
20
-109.1070489999999893
11
106.4525979999999947
21
-109.0641369999999881
0
LINE
8
BLACK
6
CONTINUOUS
10
106.4525979999999947
20
-109.0641369999999881
11
106.2971759999999932
21
-108.9896049999999974
0
LINE
8
BLACK
6
CONTINUOUS
10
106.2971759999999932
20
-108.9896049999999974
11
106.1690539999999885
21
-108.8883790000000005
0
LINE
8
BLACK
6
CONTINUOUS
10
106.1690539999999885
20
-108.8883790000000005
11
106.0658260000000013
21
-108.7653859999999924
0
LINE
8
BLACK
6
CONTINUOUS
10
106.0658260000000013
20
-108.7653859999999924
11
105.9850829999999888
21
-108.625551999999999
0
LINE
8
BLACK
6
CONTINUOUS
10
105.9850829999999888
20
-108.625551999999999
11
105.9244190000000003
21
-108.4738040000000012
0
LINE
8
BLACK
6
CONTINUOUS
10
105.9244190000000003
20
-108.4738040000000012
11
105.8814259999999905
21
-108.315068999999994
0
LINE
8
BLACK
6
CONTINUOUS
10
105.8814259999999905
20
-108.315068999999994
11
105.8536969999999968
21
-108.1542729999999892
0
LINE
8
BLACK
6
CONTINUOUS
10
105.8536969999999968
20
-108.1542729999999892
11
105.8388249999999999
21
-107.996342999999996
0
LINE
8
BLACK
6
CONTINUOUS
10
105.8388249999999999
20
-107.996342999999996
11
105.8344029999999947
21
-107.8462049999999977
0
LINE
8
BLACK
6
CONTINUOUS
10
105.8344029999999947
20
-107.8462049999999977
11
105.8388249999999999
21
-107.6958959999999905
0
LINE
8
BLACK
6
CONTINUOUS
10
105.8388249999999999
20
-107.6958959999999905
11
105.8536969999999968
21
-107.5377979999999951
0
LINE
8
BLACK
6
CONTINUOUS
10
105.8536969999999968
20
-107.5377979999999951
11
105.8814259999999905
21
-107.3768389999999897
0
LINE
8
BLACK
6
CONTINUOUS
10
105.8814259999999905
20
-107.3768389999999897
11
105.9244190000000003
21
-107.2179509999999993
0
LINE
8
BLACK
6
CONTINUOUS
10
105.9244190000000003
20
-107.2179509999999993
11
105.9850829999999888
21
-107.0660619999999881
0
LINE
8
BLACK
6
CONTINUOUS
10
105.9850829999999888
20
-107.0660619999999881
11
106.0658260000000013
21
-106.9261029999999977
0
LINE
8
BLACK
6
CONTINUOUS
10
106.0658260000000013
20
-106.9261029999999977
11
106.1690539999999885
21
-106.8030009999999947
0
LINE
8
BLACK
6
CONTINUOUS
10
106.1690539999999885
20
-106.8030009999999947
11
106.2971759999999932
21
-106.7016890000000018
0
LINE
8
BLACK
6
CONTINUOUS
10
106.2971759999999932
20
-106.7016890000000018
11
106.4525979999999947
21
-106.6270939999999996
0
LINE
8
BLACK
6
CONTINUOUS
10
106.4525979999999947
20
-106.6270939999999996
11
106.6377279999999956
21
-106.5841470000000015
0
LINE
8
BLACK
6
CONTINUOUS
10
106.6377279999999956
20
-106.5841470000000015
11
106.7788409999999999
21
-106.5755319999999955
0
LINE
8
BLACK
6
CONTINUOUS
10
106.7788409999999999
20
-106.5755319999999955
11
106.9199619999999982
21
-106.5841470000000015
0
LINE
8
BLACK
6
CONTINUOUS
10
106.70711399999999
20
-106.8564849999999922
11
106.5495480000000015
21
-106.904451999999992
0
LINE
8
BLACK
6
CONTINUOUS
10
106.5495480000000015
20
-106.904451999999992
11
106.4224209999999999
21
-107.0030900000000003
0
LINE
8
BLACK
6
CONTINUOUS
10
106.4224209999999999
20
-107.0030900000000003
11
106.3420979999999929
21
-107.1165299999999974
0
LINE
8
BLACK
6
CONTINUOUS
10
106.3420979999999929
20
-107.1165299999999974
11
106.2803369999999887
21
-107.2590489999999903
0
LINE
8
BLACK
6
CONTINUOUS
10
106.2803369999999887
20
-107.2590489999999903
11
106.2459499999999935
21
-107.3841269999999923
0
LINE
8
BLACK
6
CONTINUOUS
10
106.2459499999999935
20
-107.3841269999999923
11
106.2216019999999901
21
-107.5240979999999951
0
LINE
8
BLACK
6
CONTINUOUS
10
106.2216019999999901
20
-107.5240979999999951
11
106.2071199999999891
21
-107.678332999999995
0
LINE
8
BLACK
6
CONTINUOUS
10
106.2071199999999891
20
-107.678332999999995
11
106.2023299999999892
21
-107.8462049999999977
0
LINE
8
BLACK
6
CONTINUOUS
10
106.2023299999999892
20
-107.8462049999999977
11
106.2044549999999958
21
-107.9594960000000015
0
LINE
8
BLACK
6
CONTINUOUS
10
106.2044549999999958
20
-107.9594960000000015
11
106.2156869999999884
21
-108.1182109999999881
0
LINE
8
BLACK
6
CONTINUOUS
10
106.2156869999999884
20
-108.1182109999999881
11
106.2367279999999994
21
-108.2628969999999953
0
LINE
8
BLACK
6
CONTINUOUS
10
106.2367279999999994
20
-108.2628969999999953
11
106.2677489999999949
21
-108.3929239999999936
0
LINE
8
BLACK
6
CONTINUOUS
10
106.2677489999999949
20
-108.3929239999999936
11
106.3249339999999989
21
-108.5424000000000007
0
LINE
8
BLACK
6
CONTINUOUS
10
106.3249339999999989
20
-108.5424000000000007
11
106.4005779999999959
21
-108.6631979999999942
0
LINE
8
BLACK
6
CONTINUOUS
10
106.4005779999999959
20
-108.6631979999999942
11
106.495088999999993
21
-108.753822999999997
0
LINE
8
BLACK
6
CONTINUOUS
10
106.495088999999993
20
-108.753822999999997
11
106.6403839999999974
21
-108.8223950000000002
0
LINE
8
BLACK
6
CONTINUOUS
10
106.6403839999999974
20
-108.8223950000000002
11
106.7788409999999999
21
-108.8396630000000016
0
LINE
8
BLACK
6
CONTINUOUS
10
106.7788409999999999
20
-108.8396630000000016
11
106.850568999999993
21
-108.8353149999999943
0
LINE
8
BLACK
6
CONTINUOUS
10
106.850568999999993
20
-108.8353149999999943
11
107.0081349999999958
21
-108.787352999999996
0
LINE
8
BLACK
6
CONTINUOUS
10
107.0081349999999958
20
-108.787352999999996
11
107.1352619999999973
21
-108.6887409999999932
0
LINE
8
BLACK
6
CONTINUOUS
10
107.1352619999999973
20
-108.6887409999999932
11
107.2155839999999927
21
-108.5753459999999961
0
LINE
8
BLACK
6
CONTINUOUS
10
107.2155839999999927
20
-108.5753459999999961
11
107.2773459999999943
21
-108.4328989999999919
0
LINE
8
BLACK
6
CONTINUOUS
10
107.2773459999999943
20
-108.4328989999999919
11
107.3117319999999921
21
-108.3078989999999919
0
LINE
8
BLACK
6
CONTINUOUS
10
107.3117319999999921
20
-108.3078989999999919
11
107.3360799999999955
21
-108.16802899999999
0
LINE
8
BLACK
6
CONTINUOUS
10
107.3360799999999955
20
-108.16802899999999
11
107.350562999999994
21
-108.0139209999999963
0
LINE
8
BLACK
6
CONTINUOUS
10
107.350562999999994
20
-108.0139209999999963
11
107.3553519999999963
21
-107.8462049999999977
0
LINE
8
BLACK
6
CONTINUOUS
10
107.3553519999999963
20
-107.8462049999999977
11
107.3532280000000014
21
-107.7328059999999965
0
LINE
8
BLACK
6
CONTINUOUS
10
107.3532280000000014
20
-107.7328059999999965
11
107.3419959999999946
21
-107.5739559999999955
0
LINE
8
BLACK
6
CONTINUOUS
10
107.3419959999999946
20
-107.5739559999999955
11
107.3209549999999979
21
-107.429159999999996
0
LINE
8
BLACK
6
CONTINUOUS
10
107.3209549999999979
20
-107.429159999999996
11
107.2899339999999881
21
-107.2990479999999991
0
LINE
8
BLACK
6
CONTINUOUS
10
107.2899339999999881
20
-107.2990479999999991
11
107.2327489999999983
21
-107.1494909999999976
0
LINE
8
BLACK
6
CONTINUOUS
10
107.2327489999999983
20
-107.1494909999999976
11
107.1571050000000014
21
-107.0286419999999907
0
LINE
8
BLACK
6
CONTINUOUS
10
107.1571050000000014
20
-107.0286419999999907
11
107.0625929999999926
21
-106.9379899999999992
0
LINE
8
BLACK
6
CONTINUOUS
10
107.0625929999999926
20
-106.9379899999999992
11
106.9172989999999999
21
-106.8694050000000004
0
LINE
8
BLACK
6
CONTINUOUS
10
106.9172989999999999
20
-106.8694050000000004
11
106.7788409999999999
21
-106.852136999999999
0
LINE
8
BLACK
6
CONTINUOUS
10
106.7788409999999999
20
-106.852136999999999
11
106.70711399999999
21
-106.8564849999999922
0
LINE
8
BLACK
6
CONTINUOUS
10
110.2727840000000015
20
-106.9156399999999962
11
109.1047169999999937
21
-106.9156399999999962
0
LINE
8
BLACK
6
CONTINUOUS
10
109.1047169999999937
20
-106.9156399999999962
11
108.9870899999999949
21
-107.5897499999999951
0
LINE
8
BLACK
6
CONTINUOUS
10
108.9870899999999949
20
-107.5897499999999951
11
109.0853439999999921
21
-107.5316089999999889
0
LINE
8
BLACK
6
CONTINUOUS
10
109.0853439999999921
20
-107.5316089999999889
11
109.221983999999992
21
-107.4770509999999888
0
LINE
8
BLACK
6
CONTINUOUS
10
109.221983999999992
20
-107.4770509999999888
11
109.3694129999999944
21
-107.4451699999999903
0
LINE
8
BLACK
6
CONTINUOUS
10
109.3694129999999944
20
-107.4451699999999903
11
109.5205160000000006
21
-107.4352659999999986
0
LINE
8
BLACK
6
CONTINUOUS
10
109.5205160000000006
20
-107.4352659999999986
11
109.6460509999999999
21
-107.442623999999995
0
LINE
8
BLACK
6
CONTINUOUS
10
109.6460509999999999
20
-107.442623999999995
11
109.8104149999999919
21
-107.4750849999999929
0
LINE
8
BLACK
6
CONTINUOUS
10
109.8104149999999919
20
-107.4750849999999929
11
109.9662699999999944
21
-107.5330069999999978
0
LINE
8
BLACK
6
CONTINUOUS
10
109.9662699999999944
20
-107.5330069999999978
11
110.1080929999999967
21
-107.6159260000000017
0
LINE
8
BLACK
6
CONTINUOUS
10
110.1080929999999967
20
-107.6159260000000017
11
110.2303639999999945
21
-107.7233760000000018
0
LINE
8
BLACK
6
CONTINUOUS
10
110.2303639999999945
20
-107.7233760000000018
11
110.3275609999999887
21
-107.854890999999995
0
LINE
8
BLACK
6
CONTINUOUS
10
110.3275609999999887
20
-107.854890999999995
11
110.3806809999999956
21
-107.96904099999999
0
LINE
8
BLACK
6
CONTINUOUS
10
110.3806809999999956
20
-107.96904099999999
11
110.4142619999999937
21
-108.0962710000000015
0
LINE
8
BLACK
6
CONTINUOUS
10
110.4142619999999937
20
-108.0962710000000015
11
110.425972999999999
21
-108.2363829999999894
0
LINE
8
BLACK
6
CONTINUOUS
10
110.425972999999999
20
-108.2363829999999894
11
110.4255529999999936
21
-108.2635099999999966
0
LINE
8
BLACK
6
CONTINUOUS
10
110.4255529999999936
20
-108.2635099999999966
11
110.4136639999999971
21
-108.387399000000002
0
LINE
8
BLACK
6
CONTINUOUS
10
110.4136639999999971
20
-108.387399000000002
11
110.380283999999989
21
-108.5278139999999922
0
LINE
8
BLACK
6
CONTINUOUS
10
110.380283999999989
20
-108.5278139999999922
11
110.3185269999999889
21
-108.6739779999999911
0
LINE
8
BLACK
6
CONTINUOUS
10
110.3185269999999889
20
-108.6739779999999911
11
110.2494469999999893
21
-108.7808919999999944
0
LINE
8
BLACK
6
CONTINUOUS
10
110.2494469999999893
20
-108.7808919999999944
11
110.1576279999999883
21
-108.880431999999999
0
LINE
8
BLACK
6
CONTINUOUS
10
110.1576279999999883
20
-108.880431999999999
11
110.0401659999999993
21
-108.9680520000000001
0
LINE
8
BLACK
6
CONTINUOUS
10
110.0401659999999993
20
-108.9680520000000001
11
109.8941569999999928
21
-109.0392049999999955
0
LINE
8
BLACK
6
CONTINUOUS
10
109.8941569999999928
20
-109.0392049999999955
11
109.7166969999999964
21
-109.0893459999999919
0
LINE
8
BLACK
6
CONTINUOUS
10
109.7166969999999964
20
-109.0893459999999919
11
109.5794839999999937
21
-109.1088549999999913
0
LINE
8
BLACK
6
CONTINUOUS
10
109.5794839999999937
20
-109.1088549999999913
11
109.4261410000000012
21
-109.1156569999999988
0
LINE
8
BLACK
6
CONTINUOUS
10
109.4261410000000012
20
-109.1156569999999988
11
109.3574849999999969
21
-109.1140669999999915
0
LINE
8
BLACK
6
CONTINUOUS
10
109.3574849999999969
20
-109.1140669999999915
11
109.2158850000000001
21
-109.1000200000000007
0
LINE
8
BLACK
6
CONTINUOUS
10
109.2158850000000001
20
-109.1000200000000007
11
109.0734429999999975
21
-109.0685459999999978
0
LINE
8
BLACK
6
CONTINUOUS
10
109.0734429999999975
20
-109.0685459999999978
11
108.9360109999999935
21
-109.0161169999999942
0
LINE
8
BLACK
6
CONTINUOUS
10
108.9360109999999935
20
-109.0161169999999942
11
108.8094380000000001
21
-108.9392050000000012
0
LINE
8
BLACK
6
CONTINUOUS
10
108.8094380000000001
20
-108.9392050000000012
11
108.6995739999999984
21
-108.8342829999999992
0
LINE
8
BLACK
6
CONTINUOUS
10
108.6995739999999984
20
-108.8342829999999992
11
108.6122699999999952
21
-108.6978229999999996
0
LINE
8
BLACK
6
CONTINUOUS
10
108.6122699999999952
20
-108.6978229999999996
11
108.5651170000000008
21
-108.5726590000000016
0
LINE
8
BLACK
6
CONTINUOUS
10
108.5651170000000008
20
-108.5726590000000016
11
108.536412999999996
21
-108.4262820000000005
0
LINE
8
BLACK
6
CONTINUOUS
10
108.536412999999996
20
-108.4262820000000005
11
108.8933979999999906
21
-108.4262820000000005
0
LINE
8
BLACK
6
CONTINUOUS
10
108.8933979999999906
20
-108.4262820000000005
11
108.9084889999999888
21
-108.5047390000000007
0
LINE
8
BLACK
6
CONTINUOUS
10
108.9084889999999888
20
-108.5047390000000007
11
108.9683679999999981
21
-108.6362729999999885
0
LINE
8
BLACK
6
CONTINUOUS
10
108.9683679999999981
20
-108.6362729999999885
11
109.0634289999999993
21
-108.735131999999993
0
LINE
8
BLACK
6
CONTINUOUS
10
109.0634289999999993
20
-108.735131999999993
11
109.188367999999997
21
-108.8027159999999895
0
LINE
8
BLACK
6
CONTINUOUS
10
109.188367999999997
20
-108.8027159999999895
11
109.337885
21
-108.8404269999999912
0
LINE
8
BLACK
6
CONTINUOUS
10
109.337885
20
-108.8404269999999912
11
109.4774319999999932
21
-108.8500429999999994
0
LINE
8
BLACK
6
CONTINUOUS
10
109.4774319999999932
20
-108.8500429999999994
11
109.5426609999999954
21
-108.8470239999999905
0
LINE
8
BLACK
6
CONTINUOUS
10
109.5426609999999954
20
-108.8470239999999905
11
109.6912569999999931
21
-108.8146119999999968
0
LINE
8
BLACK
6
CONTINUOUS
10
109.6912569999999931
20
-108.8146119999999968
11
109.8175030000000021
21
-108.7504809999999935
0
LINE
8
BLACK
6
CONTINUOUS
10
109.8175030000000021
20
-108.7504809999999935
11
109.9193190000000016
21
-108.6593819999999937
0
LINE
8
BLACK
6
CONTINUOUS
10
109.9193190000000016
20
-108.6593819999999937
11
109.9946209999999951
21
-108.5460679999999911
0
LINE
8
BLACK
6
CONTINUOUS
10
109.9946209999999951
20
-108.5460679999999911
11
110.0413300000000021
21
-108.4152890000000014
0
LINE
8
BLACK
6
CONTINUOUS
10
110.0413300000000021
20
-108.4152890000000014
11
110.0573619999999977
21
-108.2717979999999898
0
LINE
8
BLACK
6
CONTINUOUS
10
110.0573619999999977
20
-108.2717979999999898
11
110.0542449999999945
21
-108.2058389999999974
0
LINE
8
BLACK
6
CONTINUOUS
10
110.0542449999999945
20
-108.2058389999999974
11
110.0206659999999914
21
-108.0581069999999926
0
LINE
8
BLACK
6
CONTINUOUS
10
110.0206659999999914
20
-108.0581069999999926
11
109.9538939999999911
21
-107.9355119999999886
0
LINE
8
BLACK
6
CONTINUOUS
10
109.9538939999999911
20
-107.9355119999999886
11
109.85848399999999
21
-107.8388219999999933
0
LINE
8
BLACK
6
CONTINUOUS
10
109.85848399999999
20
-107.8388219999999933
11
109.7389909999999986
21
-107.7688069999999954
0
LINE
8
BLACK
6
CONTINUOUS
10
109.7389909999999986
20
-107.7688069999999954
11
109.5999690000000015
21
-107.7262329999999935
0
LINE
8
BLACK
6
CONTINUOUS
10
109.5999690000000015
20
-107.7262329999999935
11
109.4459729999999951
21
-107.7118710000000021
0
LINE
8
BLACK
6
CONTINUOUS
10
109.4459729999999951
20
-107.7118710000000021
11
109.4273089999999939
21
-107.7121229999999912
0
LINE
8
BLACK
6
CONTINUOUS
10
109.4273089999999939
20
-107.7121229999999912
11
109.2827410000000015
21
-107.73190799999999
0
LINE
8
BLACK
6
CONTINUOUS
10
109.2827410000000015
20
-107.73190799999999
11
109.148744999999991
21
-107.7821119999999979
0
LINE
8
BLACK
6
CONTINUOUS
10
109.148744999999991
20
-107.7821119999999979
11
109.0283319999999918
21
-107.8610740000000021
0
LINE
8
BLACK
6
CONTINUOUS
10
109.0283319999999918
20
-107.8610740000000021
11
108.9364829999999955
21
-107.9524509999999964
0
LINE
8
BLACK
6
CONTINUOUS
10
108.9364829999999955
20
-107.9524509999999964
11
108.6383110000000016
21
-107.938406999999998
0
LINE
8
BLACK
6
CONTINUOUS
10
108.6383110000000016
20
-107.938406999999998
11
108.8462099999999992
21
-106.614609999999999
0
LINE
8
BLACK
6
CONTINUOUS
10
108.8462099999999992
20
-106.614609999999999
11
110.2727840000000015
21
-106.614609999999999
0
LINE
8
BLACK
6
CONTINUOUS
10
110.2727840000000015
20
-106.614609999999999
11
110.2727840000000015
21
-106.9156399999999962
0
LINE
8
BLACK
6
CONTINUOUS
10
112.3026199999999903
20
-106.5763389999999902
11
112.4741939999999971
21
-106.5954319999999882
0
LINE
8
BLACK
6
CONTINUOUS
10
112.4741939999999971
20
-106.5954319999999882
11
112.6327280000000002
21
-106.6390789999999953
0
LINE
8
BLACK
6
CONTINUOUS
10
112.6327280000000002
20
-106.6390789999999953
11
112.7748139999999921
21
-106.7061789999999917
0
LINE
8
BLACK
6
CONTINUOUS
10
112.7748139999999921
20
-106.7061789999999917
11
112.8970470000000006
21
-106.795628999999991
0
LINE
8
BLACK
6
CONTINUOUS
10
112.8970470000000006
20
-106.795628999999991
11
112.9960200000000015
21
-106.9063269999999903
0
LINE
8
BLACK
6
CONTINUOUS
10
112.9960200000000015
20
-106.9063269999999903
11
113.0683289999999914
21
-107.0371719999999982
0
LINE
8
BLACK
6
CONTINUOUS
10
113.0683289999999914
20
-107.0371719999999982
11
113.1105659999999915
21
-107.1870609999999999
0
LINE
8
BLACK
6
CONTINUOUS
10
113.1105659999999915
20
-107.1870609999999999
11
113.1204599999999942
21
-107.3113129999999984
0
LINE
8
BLACK
6
CONTINUOUS
10
113.1204599999999942
20
-107.3113129999999984
11
113.1056689999999918
21
-107.4653909999999968
0
LINE
8
BLACK
6
CONTINUOUS
10
113.1056689999999918
20
-107.4653909999999968
11
113.0631640000000004
21
-107.5986039999999946
0
LINE
8
BLACK
6
CONTINUOUS
10
113.0631640000000004
20
-107.5986039999999946
11
112.9957509999999985
21
-107.7140709999999899
0
LINE
8
BLACK
6
CONTINUOUS
10
112.9957509999999985
20
-107.7140709999999899
11
112.9062349999999952
21
-107.8149109999999951
0
LINE
8
BLACK
6
CONTINUOUS
10
112.9062349999999952
20
-107.8149109999999951
11
112.7974199999999882
21
-107.9042460000000005
0
LINE
8
BLACK
6
CONTINUOUS
10
112.7974199999999882
20
-107.9042460000000005
11
112.672112999999996
21
-107.9851939999999928
0
LINE
8
BLACK
6
CONTINUOUS
10
112.672112999999996
20
-107.9851939999999928
11
112.5331169999999901
21
-108.0608759999999933
0
LINE
8
BLACK
6
CONTINUOUS
10
112.5331169999999901
20
-108.0608759999999933
11
112.3832379999999915
21
-108.1344119999999975
0
LINE
8
BLACK
6
CONTINUOUS
10
112.3832379999999915
20
-108.1344119999999975
11
112.097375999999997
21
-108.2742409999999893
0
LINE
8
BLACK
6
CONTINUOUS
10
112.097375999999997
20
-108.2742409999999893
11
111.9989789999999914
21
-108.3265540000000016
0
LINE
8
BLACK
6
CONTINUOUS
10
111.9989789999999914
20
-108.3265540000000016
11
111.8664589999999919
21
-108.4131819999999919
0
LINE
8
BLACK
6
CONTINUOUS
10
111.8664589999999919
20
-108.4131819999999919
11
111.7529269999999997
21
-108.5132339999999971
0
LINE
8
BLACK
6
CONTINUOUS
10
111.7529269999999997
20
-108.5132339999999971
11
111.6717779999999891
21
-108.619300999999993
0
LINE
8
BLACK
6
CONTINUOUS
10
111.6717779999999891
20
-108.619300999999993
11
111.622762999999992
21
-108.7474610000000013
0
LINE
8
BLACK
6
CONTINUOUS
10
111.622762999999992
20
-108.7474610000000013
11
113.1204599999999942
21
-108.7474610000000013
0
LINE
8
BLACK
6
CONTINUOUS
10
113.1204599999999942
20
-108.7474610000000013
11
113.1204599999999942
21
-109.0374999999999943
0
LINE
8
BLACK
6
CONTINUOUS
10
113.1204599999999942
20
-109.0374999999999943
11
111.2350029999999919
21
-109.0374999999999943
0
LINE
8
BLACK
6
CONTINUOUS
10
111.2350029999999919
20
-109.0374999999999943
11
111.237497999999988
21
-108.990279000000001
0
LINE
8
BLACK
6
CONTINUOUS
10
111.237497999999988
20
-108.990279000000001
11
111.2531789999999887
21
-108.8566989999999919
0
LINE
8
BLACK
6
CONTINUOUS
10
111.2531789999999887
20
-108.8566989999999919
11
111.2923210000000012
21
-108.6963700000000017
0
LINE
8
BLACK
6
CONTINUOUS
10
111.2923210000000012
20
-108.6963700000000017
11
111.3508889999999951
21
-108.5546609999999959
0
LINE
8
BLACK
6
CONTINUOUS
10
111.3508889999999951
20
-108.5546609999999959
11
111.4273439999999908
21
-108.4297159999999991
0
LINE
8
BLACK
6
CONTINUOUS
10
111.4273439999999908
20
-108.4297159999999991
11
111.5201489999999893
21
-108.3196839999999952
0
LINE
8
BLACK
6
CONTINUOUS
10
111.5201489999999893
20
-108.3196839999999952
11
111.6277639999999991
21
-108.2227109999999897
0
LINE
8
BLACK
6
CONTINUOUS
10
111.6277639999999991
20
-108.2227109999999897
11
111.7486499999999978
21
-108.136942999999988
0
LINE
8
BLACK
6
CONTINUOUS
10
111.7486499999999978
20
-108.136942999999988
11
111.8812700000000007
21
-108.0605279999999908
0
LINE
8
BLACK
6
CONTINUOUS
10
111.8812700000000007
20
-108.0605279999999908
11
112.246461999999994
21
-107.8718509999999924
0
LINE
8
BLACK
6
CONTINUOUS
10
112.246461999999994
20
-107.8718509999999924
11
112.3524109999999894
21
-107.8170829999999967
0
LINE
8
BLACK
6
CONTINUOUS
10
112.3524109999999894
20
-107.8170829999999967
11
112.471786999999992
21
-107.7503150000000005
0
LINE
8
BLACK
6
CONTINUOUS
10
112.471786999999992
20
-107.7503150000000005
11
112.5919349999999923
21
-107.6645019999999988
0
LINE
8
BLACK
6
CONTINUOUS
10
112.5919349999999923
20
-107.6645019999999988
11
112.6820009999999996
21
-107.5623749999999887
0
LINE
8
BLACK
6
CONTINUOUS
10
112.6820009999999996
20
-107.5623749999999887
11
112.7368199999999945
21
-107.4332369999999912
0
LINE
8
BLACK
6
CONTINUOUS
10
112.7368199999999945
20
-107.4332369999999912
11
112.7518489999999929
21
-107.297269
0
LINE
8
BLACK
6
CONTINUOUS
10
112.7518489999999929
20
-107.297269
11
112.7450059999999894
21
-107.2218680000000006
0
LINE
8
BLACK
6
CONTINUOUS
10
112.7450059999999894
20
-107.2218680000000006
11
112.6969359999999938
21
-107.0885849999999948
0
LINE
8
BLACK
6
CONTINUOUS
10
112.6969359999999938
20
-107.0885849999999948
11
112.6142150000000015
21
-106.9852259999999973
0
LINE
8
BLACK
6
CONTINUOUS
10
112.6142150000000015
20
-106.9852259999999973
11
112.4880599999999902
21
-106.904531999999989
0
LINE
8
BLACK
6
CONTINUOUS
10
112.4880599999999902
20
-106.904531999999989
11
112.3462589999999892
21
-106.8632239999999882
0
LINE
8
BLACK
6
CONTINUOUS
10
112.3462589999999892
20
-106.8632239999999882
11
112.2067969999999946
21
-106.852136999999999
0
LINE
8
BLACK
6
CONTINUOUS
10
112.2067969999999946
20
-106.852136999999999
11
112.1593839999999886
21
-106.8533889999999928
0
LINE
8
BLACK
6
CONTINUOUS
10
112.1593839999999886
20
-106.8533889999999928
11
111.9970879999999909
21
-106.8813159999999982
0
LINE
8
BLACK
6
CONTINUOUS
10
111.9970879999999909
20
-106.8813159999999982
11
111.8491109999999935
21
-106.9582070000000016
0
LINE
8
BLACK
6
CONTINUOUS
10
111.8491109999999935
20
-106.9582070000000016
11
111.7517679999999984
21
-107.0668329999999884
0
LINE
8
BLACK
6
CONTINUOUS
10
111.7517679999999984
20
-107.0668329999999884
11
111.6939599999999899
21
-107.1912200000000013
0
LINE
8
BLACK
6
CONTINUOUS
10
111.6939599999999899
20
-107.1912200000000013
11
111.6645899999999898
21
-107.3153959999999927
0
LINE
8
BLACK
6
CONTINUOUS
10
111.6645899999999898
20
-107.3153959999999927
11
111.650117999999992
21
-107.4584689999999938
0
LINE
8
BLACK
6
CONTINUOUS
10
111.650117999999992
20
-107.4584689999999938
11
111.3054429999999968
21
-107.4584689999999938
0
LINE
8
BLACK
6
CONTINUOUS
10
111.3054429999999968
20
-107.4584689999999938
11
111.3073289999999957
21
-107.3853450000000009
0
LINE
8
BLACK
6
CONTINUOUS
10
111.3073289999999957
20
-107.3853450000000009
11
111.3218669999999975
21
-107.2513139999999936
0
LINE
8
BLACK
6
CONTINUOUS
10
111.3218669999999975
20
-107.2513139999999936
11
111.3678060000000016
21
-107.0790489999999977
0
LINE
8
BLACK
6
CONTINUOUS
10
111.3678060000000016
20
-107.0790489999999977
11
111.4382650000000012
21
-106.9385049999999922
0
LINE
8
BLACK
6
CONTINUOUS
10
111.4382650000000012
20
-106.9385049999999922
11
111.5282459999999958
21
-106.8265129999999914
0
LINE
8
BLACK
6
CONTINUOUS
10
111.5282459999999958
20
-106.8265129999999914
11
111.6327519999999964
21
-106.7399020000000007
0
LINE
8
BLACK
6
CONTINUOUS
10
111.6327519999999964
20
-106.7399020000000007
11
111.7860489999999913
21
-106.658424999999994
0
LINE
8
BLACK
6
CONTINUOUS
10
111.7860489999999913
20
-106.658424999999994
11
111.9444400000000002
21
-106.6089219999999926
0
LINE
8
BLACK
6
CONTINUOUS
10
111.9444400000000002
20
-106.6089219999999926
11
112.0960789999999889
21
-106.583880999999991
0
LINE
8
BLACK
6
CONTINUOUS
10
112.0960789999999889
20
-106.583880999999991
11
112.2580880000000008
21
-106.5755319999999955
0
LINE
8
BLACK
6
CONTINUOUS
10
112.2580880000000008
20
-106.5755319999999955
11
112.3026199999999903
21
-106.5763389999999902
0
LINE
8
BLACK
6
CONTINUOUS
10
107.8275719999999893
20
-103.8964029999999923
11
107.9443749999999937
21
-103.9149769999999933
0
LINE
8
BLACK
6
CONTINUOUS
10
107.9443749999999937
20
-103.9149769999999933
11
108.050383999999994
21
-103.9446169999999938
0
LINE
8
BLACK
6
CONTINUOUS
10
108.050383999999994
20
-103.9446169999999938
11
108.1460049999999882
21
-103.9842469999999963
0
LINE
8
BLACK
6
CONTINUOUS
10
108.1460049999999882
20
-103.9842469999999963
11
108.2316439999999886
21
-104.0327899999999914
0
LINE
8
BLACK
6
CONTINUOUS
10
108.2316439999999886
20
-104.0327899999999914
11
108.3077069999999935
21
-104.0891689999999983
0
LINE
8
BLACK
6
CONTINUOUS
10
108.3077069999999935
20
-104.0891689999999983
11
108.3746009999999984
21
-104.1523079999999908
0
LINE
8
BLACK
6
CONTINUOUS
10
108.3746009999999984
20
-104.1523079999999908
11
108.4586339999999893
21
-104.2573340000000002
0
LINE
8
BLACK
6
CONTINUOUS
10
108.4586339999999893
20
-104.2573340000000002
11
108.5243169999999964
21
-104.3715119999999956
0
LINE
8
BLACK
6
CONTINUOUS
10
108.5243169999999964
20
-104.3715119999999956
11
108.5730199999999996
21
-104.4912080000000003
0
LINE
8
BLACK
6
CONTINUOUS
10
108.5730199999999996
20
-104.4912080000000003
11
108.606111999999996
21
-104.6127879999999948
0
LINE
8
BLACK
6
CONTINUOUS
10
108.606111999999996
20
-104.6127879999999948
11
108.6249619999999965
21
-104.7326169999999905
0
LINE
8
BLACK
6
CONTINUOUS
10
108.6249619999999965
20
-104.7326169999999905
11
108.6309419999999903
21
-104.847061999999994
0
LINE
8
BLACK
6
CONTINUOUS
10
108.6309419999999903
20
-104.847061999999994
11
108.6302939999999921
21
-104.8843469999999911
0
LINE
8
BLACK
6
CONTINUOUS
10
108.6302939999999921
20
-104.8843469999999911
11
108.6201769999999982
21
-105.0008669999999995
0
LINE
8
BLACK
6
CONTINUOUS
10
108.6201769999999982
20
-105.0008669999999995
11
108.5967309999999912
21
-105.1215639999999922
0
LINE
8
BLACK
6
CONTINUOUS
10
108.5967309999999912
20
-105.1215639999999922
11
108.5585880000000003
21
-105.2428049999999899
0
LINE
8
BLACK
6
CONTINUOUS
10
108.5585880000000003
20
-105.2428049999999899
11
108.504376999999991
21
-105.3609579999999966
0
LINE
8
BLACK
6
CONTINUOUS
10
108.504376999999991
20
-105.3609579999999966
11
108.4327289999999948
21
-105.4723910000000018
0
LINE
8
BLACK
6
CONTINUOUS
10
108.4327289999999948
20
-105.4723910000000018
11
108.3746009999999984
21
-105.5411529999999942
0
LINE
8
BLACK
6
CONTINUOUS
10
108.3746009999999984
20
-105.5411529999999942
11
108.3077069999999935
21
-105.6042389999999926
0
LINE
8
BLACK
6
CONTINUOUS
10
108.3077069999999935
20
-105.6042389999999926
11
108.2316439999999886
21
-105.6605709999999902
0
LINE
8
BLACK
6
CONTINUOUS
10
108.2316439999999886
20
-105.6605709999999902
11
108.1460049999999882
21
-105.7090740000000011
0
LINE
8
BLACK
6
CONTINUOUS
10
108.1460049999999882
20
-105.7090740000000011
11
108.050383999999994
21
-105.7486719999999991
0
LINE
8
BLACK
6
CONTINUOUS
10
108.050383999999994
20
-105.7486719999999991
11
107.9443749999999937
21
-105.7782879999999892
0
LINE
8
BLACK
6
CONTINUOUS
10
107.9443749999999937
20
-105.7782879999999892
11
107.8275719999999893
21
-105.7968479999999971
0
LINE
8
BLACK
6
CONTINUOUS
10
107.8275719999999893
20
-105.7968479999999971
11
107.6995699999999943
21
-105.8032729999999901
0
LINE
8
BLACK
6
CONTINUOUS
10
107.6995699999999943
20
-105.8032729999999901
11
107.5716499999999911
21
-105.7968479999999971
0
LINE
8
BLACK
6
CONTINUOUS
10
107.5716499999999911
20
-105.7968479999999971
11
107.4549189999999896
21
-105.7782879999999892
0
LINE
8
BLACK
6
CONTINUOUS
10
107.4549189999999896
20
-105.7782879999999892
11
107.3489719999999892
21
-105.7486719999999991
0
LINE
8
BLACK
6
CONTINUOUS
10
107.3489719999999892
20
-105.7486719999999991
11
107.2534039999999891
21
-105.7090740000000011
0
LINE
8
BLACK
6
CONTINUOUS
10
107.2534039999999891
20
-105.7090740000000011
11
107.1678099999999887
21
-105.6605709999999902
0
LINE
8
BLACK
6
CONTINUOUS
10
107.1678099999999887
20
-105.6605709999999902
11
107.0917839999999899
21
-105.6042389999999926
0
LINE
8
BLACK
6
CONTINUOUS
10
107.0917839999999899
20
-105.6042389999999926
11
107.0249219999999895
21
-105.5411529999999942
0
LINE
8
BLACK
6
CONTINUOUS
10
107.0249219999999895
20
-105.5411529999999942
11
106.940922999999998
21
-105.4362179999999967
0
LINE
8
BLACK
6
CONTINUOUS
10
106.940922999999998
20
-105.4362179999999967
11
106.8752629999999897
21
-105.322141000000002
0
LINE
8
BLACK
6
CONTINUOUS
10
106.8752629999999897
20
-105.322141000000002
11
106.8265749999999912
21
-105.2025549999999896
0
LINE
8
BLACK
6
CONTINUOUS
10
106.8265749999999912
20
-105.2025549999999896
11
106.7934899999999914
21
-105.0810919999999982
0
LINE
8
BLACK
6
CONTINUOUS
10
106.7934899999999914
20
-105.0810919999999982
11
106.7746420000000001
21
-104.9613839999999954
0
LINE
8
BLACK
6
CONTINUOUS
10
106.7746420000000001
20
-104.9613839999999954
11
106.7686629999999894
21
-104.847061999999994
0
LINE
8
BLACK
6
CONTINUOUS
10
106.7686629999999894
20
-104.847061999999994
11
106.7693110000000019
21
-104.8097369999999984
0
LINE
8
BLACK
6
CONTINUOUS
10
106.7693110000000019
20
-104.8097369999999984
11
106.7794269999999983
21
-104.6930929999999904
0
LINE
8
BLACK
6
CONTINUOUS
10
106.7794269999999983
20
-104.6930929999999904
11
106.8028690000000012
21
-104.5722769999999997
0
LINE
8
BLACK
6
CONTINUOUS
10
106.8028690000000012
20
-104.5722769999999997
11
106.8410030000000006
21
-104.4509209999999939
0
LINE
8
BLACK
6
CONTINUOUS
10
106.8410030000000006
20
-104.4509209999999939
11
106.895196999999996
21
-104.33265999999999
0
LINE
8
BLACK
6
CONTINUOUS
10
106.895196999999996
20
-104.33265999999999
11
106.9668169999999918
21
-104.2211289999999906
0
LINE
8
BLACK
6
CONTINUOUS
10
106.9668169999999918
20
-104.2211289999999906
11
107.0249219999999895
21
-104.1523079999999908
0
LINE
8
BLACK
6
CONTINUOUS
10
107.0249219999999895
20
-104.1523079999999908
11
107.0917839999999899
21
-104.0891689999999983
0
LINE
8
BLACK
6
CONTINUOUS
10
107.0917839999999899
20
-104.0891689999999983
11
107.1678099999999887
21
-104.0327899999999914
0
LINE
8
BLACK
6
CONTINUOUS
10
107.1678099999999887
20
-104.0327899999999914
11
107.2534039999999891
21
-103.9842469999999963
0
LINE
8
BLACK
6
CONTINUOUS
10
107.2534039999999891
20
-103.9842469999999963
11
107.3489719999999892
21
-103.9446169999999938
0
LINE
8
BLACK
6
CONTINUOUS
10
107.3489719999999892
20
-103.9446169999999938
11
107.4549189999999896
21
-103.9149769999999933
0
LINE
8
BLACK
6
CONTINUOUS
10
107.4549189999999896
20
-103.9149769999999933
11
107.5716499999999911
21
-103.8964029999999923
0
LINE
8
BLACK
6
CONTINUOUS
10
107.5716499999999911
20
-103.8964029999999923
11
107.6995699999999943
21
-103.8899720000000002
0
LINE
8
BLACK
6
CONTINUOUS
10
107.6995699999999943
20
-103.8899720000000002
11
107.8275719999999893
21
-103.8964029999999923
0
LINE
8
BLACK
6
CONTINUOUS
10
107.6237339999999989
20
-104.1103189999999898
11
107.5174909999999926
21
-104.1287999999999982
0
LINE
8
BLACK
6
CONTINUOUS
10
107.5174909999999926
20
-104.1287999999999982
11
107.4206409999999892
21
-104.162115
0
LINE
8
BLACK
6
CONTINUOUS
10
107.4206409999999892
20
-104.162115
11
107.3336029999999965
21
-104.2092990000000015
0
LINE
8
BLACK
6
CONTINUOUS
10
107.3336029999999965
20
-104.2092990000000015
11
107.2568009999999958
21
-104.2693900000000014
0
LINE
8
BLACK
6
CONTINUOUS
10
107.2568009999999958
20
-104.2693900000000014
11
107.1906559999999899
21
-104.341425000000001
0
LINE
8
BLACK
6
CONTINUOUS
10
107.1906559999999899
20
-104.341425000000001
11
107.1355909999999909
21
-104.4244410000000016
0
LINE
8
BLACK
6
CONTINUOUS
10
107.1355909999999909
20
-104.4244410000000016
11
107.0920279999999991
21
-104.517476000000002
0
LINE
8
BLACK
6
CONTINUOUS
10
107.0920279999999991
20
-104.517476000000002
11
107.060387999999989
21
-104.6195669999999893
0
LINE
8
BLACK
6
CONTINUOUS
10
107.060387999999989
20
-104.6195669999999893
11
107.0410949999999985
21
-104.7297499999999957
0
LINE
8
BLACK
6
CONTINUOUS
10
107.0410949999999985
20
-104.7297499999999957
11
107.0345700000000022
21
-104.847061999999994
0
LINE
8
BLACK
6
CONTINUOUS
10
107.0345700000000022
20
-104.847061999999994
11
107.0374809999999997
21
-104.9259380000000021
0
LINE
8
BLACK
6
CONTINUOUS
10
107.0374809999999997
20
-104.9259380000000021
11
107.0525650000000013
21
-105.0385069999999956
0
LINE
8
BLACK
6
CONTINUOUS
10
107.0525650000000013
20
-105.0385069999999956
11
107.0801349999999985
21
-105.1433229999999952
0
LINE
8
BLACK
6
CONTINUOUS
10
107.0801349999999985
20
-105.1433229999999952
11
107.1197710000000001
21
-105.2394219999999905
0
LINE
8
BLACK
6
CONTINUOUS
10
107.1197710000000001
20
-105.2394219999999905
11
107.1710489999999965
21
-105.325839000000002
0
LINE
8
BLACK
6
CONTINUOUS
10
107.1710489999999965
20
-105.325839000000002
11
107.2335470000000015
21
-105.401607999999996
0
LINE
8
BLACK
6
CONTINUOUS
10
107.2335470000000015
20
-105.401607999999996
11
107.3068439999999981
21
-105.4657660000000021
0
LINE
8
BLACK
6
CONTINUOUS
10
107.3068439999999981
20
-105.4657660000000021
11
107.3905169999999885
21
-105.5173459999999892
0
LINE
8
BLACK
6
CONTINUOUS
10
107.3905169999999885
20
-105.5173459999999892
11
107.4841440000000006
21
-105.555382999999992
0
LINE
8
BLACK
6
CONTINUOUS
10
107.4841440000000006
20
-105.555382999999992
11
107.587301999999994
21
-105.5789139999999975
0
LINE
8
BLACK
6
CONTINUOUS
10
107.587301999999994
20
-105.5789139999999975
11
107.6995699999999943
21
-105.5869719999999887
0
LINE
8
BLACK
6
CONTINUOUS
10
107.6995699999999943
20
-105.5869719999999887
11
107.7754889999999932
21
-105.5833659999999981
0
LINE
8
BLACK
6
CONTINUOUS
10
107.7754889999999932
20
-105.5833659999999981
11
107.8818349999999953
21
-105.5648860000000013
0
LINE
8
BLACK
6
CONTINUOUS
10
107.8818349999999953
20
-105.5648860000000013
11
107.9787689999999998
21
-105.5315769999999986
0
LINE
8
BLACK
6
CONTINUOUS
10
107.9787689999999998
20
-105.5315769999999986
11
108.0658710000000013
21
-105.4844039999999978
0
LINE
8
BLACK
6
CONTINUOUS
10
108.0658710000000013
20
-105.4844039999999978
11
108.142721999999992
21
-105.4243319999999926
0
LINE
8
BLACK
6
CONTINUOUS
10
108.142721999999992
20
-105.4243319999999926
11
108.2089009999999973
21
-105.3523259999999908
0
LINE
8
BLACK
6
CONTINUOUS
10
108.2089009999999973
20
-105.3523259999999908
11
108.2639899999999926
21
-105.2693510000000003
0
LINE
8
BLACK
6
CONTINUOUS
10
108.2639899999999926
20
-105.2693510000000003
11
108.3075669999999917
21
-105.1763720000000006
0
LINE
8
BLACK
6
CONTINUOUS
10
108.3075669999999917
20
-105.1763720000000006
11
108.3392130000000009
21
-105.0743539999999996
0
LINE
8
BLACK
6
CONTINUOUS
10
108.3392130000000009
20
-105.0743539999999996
11
108.358508999999998
21
-104.9642629999999883
0
LINE
8
BLACK
6
CONTINUOUS
10
108.358508999999998
20
-104.9642629999999883
11
108.3650339999999943
21
-104.847061999999994
0
LINE
8
BLACK
6
CONTINUOUS
10
108.3650339999999943
20
-104.847061999999994
11
108.3621239999999943
21
-104.7681089999999955
0
LINE
8
BLACK
6
CONTINUOUS
10
108.3621239999999943
20
-104.7681089999999955
11
108.3470379999999977
21
-104.6554429999999911
0
LINE
8
BLACK
6
CONTINUOUS
10
108.3470379999999977
20
-104.6554429999999911
11
108.3194620000000015
21
-104.550547999999992
0
LINE
8
BLACK
6
CONTINUOUS
10
108.3194620000000015
20
-104.550547999999992
11
108.2798149999999993
21
-104.454386999999997
0
LINE
8
BLACK
6
CONTINUOUS
10
108.2798149999999993
20
-104.454386999999997
11
108.2285169999999965
21
-104.3679240000000021
0
LINE
8
BLACK
6
CONTINUOUS
10
108.2285169999999965
20
-104.3679240000000021
11
108.1659879999999987
21
-104.292121999999992
0
LINE
8
BLACK
6
CONTINUOUS
10
108.1659879999999987
20
-104.292121999999992
11
108.092647999999997
21
-104.2279419999999988
0
LINE
8
BLACK
6
CONTINUOUS
10
108.092647999999997
20
-104.2279419999999988
11
108.0089159999999993
21
-104.1763490000000019
0
LINE
8
BLACK
6
CONTINUOUS
10
108.0089159999999993
20
-104.1763490000000019
11
107.9152119999999968
21
-104.1383039999999909
0
LINE
8
BLACK
6
CONTINUOUS
10
107.9152119999999968
20
-104.1383039999999909
11
107.8119569999999925
21
-104.1147720000000021
0
LINE
8
BLACK
6
CONTINUOUS
10
107.8119569999999925
20
-104.1147720000000021
11
107.6995699999999943
21
-104.1067129999999992
0
LINE
8
BLACK
6
CONTINUOUS
10
107.6995699999999943
20
-104.1067129999999992
11
107.6237339999999989
21
-104.1103189999999898
0
LINE
8
BLACK
6
CONTINUOUS
10
111.120166999999995
20
-105.0853460000000013
11
111.1230639999999994
21
-105.1557490000000001
0
LINE
8
BLACK
6
CONTINUOUS
10
111.1230639999999994
20
-105.1557490000000001
11
111.137644999999992
21
-105.249418999999989
0
LINE
8
BLACK
6
CONTINUOUS
10
111.137644999999992
20
-105.249418999999989
11
111.174082999999996
21
-105.3533819999999963
0
LINE
8
BLACK
6
CONTINUOUS
10
111.174082999999996
20
-105.3533819999999963
11
111.2270010000000013
21
-105.4353149999999886
0
LINE
8
BLACK
6
CONTINUOUS
10
111.2270010000000013
20
-105.4353149999999886
11
111.2931829999999991
21
-105.4972789999999918
0
LINE
8
BLACK
6
CONTINUOUS
10
111.2931829999999991
20
-105.4972789999999918
11
111.3896689999999978
21
-105.549790999999999
0
LINE
8
BLACK
6
CONTINUOUS
10
111.3896689999999978
20
-105.549790999999999
11
111.4955829999999963
21
-105.5783469999999937
0
LINE
8
BLACK
6
CONTINUOUS
10
111.4955829999999963
20
-105.5783469999999937
11
111.6046469999999999
21
-105.5869719999999887
0
LINE
8
BLACK
6
CONTINUOUS
10
111.6046469999999999
20
-105.5869719999999887
11
111.6941929999999985
21
-105.5817639999999926
0
LINE
8
BLACK
6
CONTINUOUS
10
111.6941929999999985
20
-105.5817639999999926
11
111.80471
21
-105.5582979999999935
0
LINE
8
BLACK
6
CONTINUOUS
10
111.80471
20
-105.5582979999999935
11
111.9073509999999914
21
-105.5120000000000005
0
LINE
8
BLACK
6
CONTINUOUS
10
111.9073509999999914
20
-105.5120000000000005
11
111.9792519999999882
21
-105.455648999999994
0
LINE
8
BLACK
6
CONTINUOUS
10
111.9792519999999882
20
-105.455648999999994
11
112.038330000000002
21
-105.3797589999999929
0
LINE
8
BLACK
6
CONTINUOUS
10
112.038330000000002
20
-105.3797589999999929
11
112.0811259999999976
21
-105.2821399999999983
0
LINE
8
BLACK
6
CONTINUOUS
10
112.0811259999999976
20
-105.2821399999999983
11
112.1004579999999891
21
-105.1933499999999952
0
LINE
8
BLACK
6
CONTINUOUS
10
112.1004579999999891
20
-105.1933499999999952
11
112.1072259999999972
21
-105.0901819999999987
0
LINE
8
BLACK
6
CONTINUOUS
10
112.1072259999999972
20
-105.0901819999999987
11
112.1072259999999972
21
-103.9462460000000021
0
LINE
8
BLACK
6
CONTINUOUS
10
112.1072259999999972
20
-103.9462460000000021
11
112.3652439999999899
21
-103.9462460000000021
0
LINE
8
BLACK
6
CONTINUOUS
10
112.3652439999999899
20
-103.9462460000000021
11
112.3652439999999899
21
-105.1205169999999924
0
LINE
8
BLACK
6
CONTINUOUS
10
112.3652439999999899
20
-105.1205169999999924
11
112.3587670000000003
21
-105.2230009999999965
0
LINE
8
BLACK
6
CONTINUOUS
10
112.3587670000000003
20
-105.2230009999999965
11
112.3392209999999949
21
-105.3211479999999938
0
LINE
8
BLACK
6
CONTINUOUS
10
112.3392209999999949
20
-105.3211479999999938
11
112.3064339999999959
21
-105.4137029999999982
0
LINE
8
BLACK
6
CONTINUOUS
10
112.3064339999999959
20
-105.4137029999999982
11
112.2602349999999944
21
-105.4994129999999899
0
LINE
8
BLACK
6
CONTINUOUS
10
112.2602349999999944
20
-105.4994129999999899
11
112.2004499999999894
21
-105.5770219999999995
0
LINE
8
BLACK
6
CONTINUOUS
10
112.2004499999999894
20
-105.5770219999999995
11
112.1269080000000002
21
-105.645276999999993
0
LINE
8
BLACK
6
CONTINUOUS
10
112.1269080000000002
20
-105.645276999999993
11
112.0394369999999924
21
-105.7029249999999934
0
LINE
8
BLACK
6
CONTINUOUS
10
112.0394369999999924
20
-105.7029249999999934
11
111.937864999999988
21
-105.7487099999999884
0
LINE
8
BLACK
6
CONTINUOUS
10
111.937864999999988
20
-105.7487099999999884
11
111.8220199999999949
21
-105.7813790000000012
0
LINE
8
BLACK
6
CONTINUOUS
10
111.8220199999999949
20
-105.7813790000000012
11
111.6917289999999952
21
-105.7996769999999884
0
LINE
8
BLACK
6
CONTINUOUS
10
111.6917289999999952
20
-105.7996769999999884
11
111.5967579999999941
21
-105.8032729999999901
0
LINE
8
BLACK
6
CONTINUOUS
10
111.5967579999999941
20
-105.8032729999999901
11
111.5038499999999999
21
-105.7996849999999966
0
LINE
8
BLACK
6
CONTINUOUS
10
111.5038499999999999
20
-105.7996849999999966
11
111.3771259999999899
21
-105.7815049999999957
0
LINE
8
BLACK
6
CONTINUOUS
10
111.3771259999999899
20
-105.7815049999999957
11
111.2652519999999896
21
-105.7492249999999956
0
LINE
8
BLACK
6
CONTINUOUS
10
111.2652519999999896
20
-105.7492249999999956
11
111.1678699999999935
21
-105.7042639999999949
0
LINE
8
BLACK
6
CONTINUOUS
10
111.1678699999999935
20
-105.7042639999999949
11
111.0846269999999976
21
-105.6480389999999971
0
LINE
8
BLACK
6
CONTINUOUS
10
111.0846269999999976
20
-105.6480389999999971
11
111.0151659999999936
21
-105.5819659999999942
0
LINE
8
BLACK
6
CONTINUOUS
10
111.0151659999999936
20
-105.5819659999999942
11
110.9591309999999993
21
-105.5074630000000013
0
LINE
8
BLACK
6
CONTINUOUS
10
110.9591309999999993
20
-105.5074630000000013
11
110.916167999999999
21
-105.4259459999999962
0
LINE
8
BLACK
6
CONTINUOUS
10
110.916167999999999
20
-105.4259459999999962
11
110.8859199999999987
21
-105.3388339999999914
0
LINE
8
BLACK
6
CONTINUOUS
10
110.8859199999999987
20
-105.3388339999999914
11
110.8680329999999969
21
-105.2475419999999957
0
LINE
8
BLACK
6
CONTINUOUS
10
110.8680329999999969
20
-105.2475419999999957
11
110.8621489999999881
21
-105.1534889999999933
0
LINE
8
BLACK
6
CONTINUOUS
10
110.8621489999999881
20
-105.1534889999999933
11
110.8621489999999881
21
-103.9462460000000021
0
LINE
8
BLACK
6
CONTINUOUS
10
110.8621489999999881
20
-103.9462460000000021
11
111.120166999999995
21
-103.9462460000000021
0
LINE
8
BLACK
6
CONTINUOUS
10
111.120166999999995
20
-103.9462460000000021
11
111.120166999999995
21
-105.0853460000000013
0
LINE
8
BLACK
6
CONTINUOUS
10
105.5597829999999959
20
-105.4673899999999946
11
105.5648879999999963
21
-105.4673899999999946
0
LINE
8
BLACK
6
CONTINUOUS
10
105.5648879999999963
20
-105.4673899999999946
11
106.1078399999999959
21
-103.9462460000000021
0
LINE
8
BLACK
6
CONTINUOUS
10
106.1078399999999959
20
-103.9462460000000021
11
106.4749119999999891
21
-103.9462460000000021
0
LINE
8
BLACK
6
CONTINUOUS
10
106.4749119999999891
20
-103.9462460000000021
11
106.4749119999999891
21
-105.7469999999999999
0
LINE
8
BLACK
6
CONTINUOUS
10
106.4749119999999891
20
-105.7469999999999999
11
106.2247830000000022
21
-105.7469999999999999
0
LINE
8
BLACK
6
CONTINUOUS
10
106.2247830000000022
20
-105.7469999999999999
11
106.2247830000000022
21
-104.6839569999999924
0
LINE
8
BLACK
6
CONTINUOUS
10
106.2247830000000022
20
-104.6839569999999924
11
106.2254089999999991
21
-104.6269089999999977
0
LINE
8
BLACK
6
CONTINUOUS
10
106.2254089999999991
20
-104.6269089999999977
11
106.2268600000000021
21
-104.5342969999999951
0
LINE
8
BLACK
6
CONTINUOUS
10
106.2268600000000021
20
-104.5342969999999951
11
106.2282730000000015
21
-104.4378289999999936
0
LINE
8
BLACK
6
CONTINUOUS
10
106.2282730000000015
20
-104.4378289999999936
11
106.229416999999998
21
-104.3354250000000008
0
LINE
8
BLACK
6
CONTINUOUS
10
106.229416999999998
20
-104.3354250000000008
11
106.2298879999999883
21
-104.2364060000000023
0
LINE
8
BLACK
6
CONTINUOUS
10
106.2298879999999883
20
-104.2364060000000023
11
106.2247830000000022
21
-104.2364060000000023
0
LINE
8
BLACK
6
CONTINUOUS
10
106.2247830000000022
20
-104.2364060000000023
11
105.6873999999999967
21
-105.7469999999999999
0
LINE
8
BLACK
6
CONTINUOUS
10
105.6873999999999967
20
-105.7469999999999999
11
105.4321659999999952
21
-105.7469999999999999
0
LINE
8
BLACK
6
CONTINUOUS
10
105.4321659999999952
20
-105.7469999999999999
11
104.8947829999999897
21
-104.2386049999999926
0
LINE
8
BLACK
6
CONTINUOUS
10
104.8947829999999897
20
-104.2386049999999926
11
104.889214999999993
21
-104.2386049999999926
0
LINE
8
BLACK
6
CONTINUOUS
10
104.889214999999993
20
-104.2386049999999926
11
104.8893519999999882
21
-104.2865460000000013
0
LINE
8
BLACK
6
CONTINUOUS
10
104.8893519999999882
20
-104.2865460000000013
11
104.8902879999999982
21
-104.3876029999999986
0
LINE
8
BLACK
6
CONTINUOUS
10
104.8902879999999982
20
-104.3876029999999986
11
104.8917379999999895
21
-104.4877169999999893
0
LINE
8
BLACK
6
CONTINUOUS
10
104.8917379999999895
20
-104.4877169999999893
11
104.8934919999999948
21
-104.5907769999999886
0
LINE
8
BLACK
6
CONTINUOUS
10
104.8934919999999948
20
-104.5907769999999886
11
104.8947829999999897
21
-104.6839569999999924
0
LINE
8
BLACK
6
CONTINUOUS
10
104.8947829999999897
20
-104.6839569999999924
11
104.8947829999999897
21
-105.7469999999999999
0
LINE
8
BLACK
6
CONTINUOUS
10
104.8947829999999897
20
-105.7469999999999999
11
104.6446539999999885
21
-105.7469999999999999
0
LINE
8
BLACK
6
CONTINUOUS
10
104.6446539999999885
20
-105.7469999999999999
11
104.6446539999999885
21
-103.9462460000000021
0
LINE
8
BLACK
6
CONTINUOUS
10
104.6446539999999885
20
-103.9462460000000021
11
105.0145109999999988
21
-103.9462460000000021
0
LINE
8
BLACK
6
CONTINUOUS
10
105.0145109999999988
20
-103.9462460000000021
11
105.5597829999999959
21
-105.4673899999999946
0
LINE
8
BLACK
6
CONTINUOUS
10
109.8134170000000012
20
-103.9503819999999905
11
109.9411319999999961
21
-103.9716480000000018
0
LINE
8
BLACK
6
CONTINUOUS
10
109.9411319999999961
20
-103.9716480000000018
11
110.0578000000000003
21
-104.0101310000000012
0
LINE
8
BLACK
6
CONTINUOUS
10
110.0578000000000003
20
-104.0101310000000012
11
110.1628559999999908
21
-104.064865999999995
0
LINE
8
BLACK
6
CONTINUOUS
10
110.1628559999999908
20
-104.064865999999995
11
110.2557359999999989
21
-104.1348879999999895
0
LINE
8
BLACK
6
CONTINUOUS
10
110.2557359999999989
20
-104.1348879999999895
11
110.3358739999999898
21
-104.2192309999999935
0
LINE
8
BLACK
6
CONTINUOUS
10
110.3358739999999898
20
-104.2192309999999935
11
110.4027079999999899
21
-104.3169319999999942
0
LINE
8
BLACK
6
CONTINUOUS
10
110.4027079999999899
20
-104.3169319999999942
11
110.4556719999999927
21
-104.4270250000000004
0
LINE
8
BLACK
6
CONTINUOUS
10
110.4556719999999927
20
-104.4270250000000004
11
110.4942029999999988
21
-104.5485439999999926
0
LINE
8
BLACK
6
CONTINUOUS
10
110.4942029999999988
20
-104.5485439999999926
11
110.5115919999999932
21
-104.635429000000002
0
LINE
8
BLACK
6
CONTINUOUS
10
110.5115919999999932
20
-104.635429000000002
11
110.5221480000000014
21
-104.7266769999999951
0
LINE
8
BLACK
6
CONTINUOUS
10
110.5221480000000014
20
-104.7266769999999951
11
110.5257039999999904
21
-104.8220029999999952
0
LINE
8
BLACK
6
CONTINUOUS
10
110.5257039999999904
20
-104.8220029999999952
11
110.5234609999999975
21
-104.8988279999999946
0
LINE
8
BLACK
6
CONTINUOUS
10
110.5234609999999975
20
-104.8988279999999946
11
110.5110990000000015
21
-105.0172290000000004
0
LINE
8
BLACK
6
CONTINUOUS
10
110.5110990000000015
20
-105.0172290000000004
11
110.4868179999999995
21
-105.136611000000002
0
LINE
8
BLACK
6
CONTINUOUS
10
110.4868179999999995
20
-105.136611000000002
11
110.449350999999993
21
-105.2538089999999897
0
LINE
8
BLACK
6
CONTINUOUS
10
110.449350999999993
20
-105.2538089999999897
11
110.3974369999999965
21
-105.3656549999999896
0
LINE
8
BLACK
6
CONTINUOUS
10
110.3974369999999965
20
-105.3656549999999896
11
110.3298089999999974
21
-105.4689819999999969
0
LINE
8
BLACK
6
CONTINUOUS
10
110.3298089999999974
20
-105.4689819999999969
11
110.245205999999996
21
-105.5606229999999925
0
LINE
8
BLACK
6
CONTINUOUS
10
110.245205999999996
20
-105.5606229999999925
11
110.142360999999994
21
-105.6374129999999951
0
LINE
8
BLACK
6
CONTINUOUS
10
110.142360999999994
20
-105.6374129999999951
11
110.0200109999999967
21
-105.6961829999999907
0
LINE
8
BLACK
6
CONTINUOUS
10
110.0200109999999967
20
-105.6961829999999907
11
109.9269850000000019
21
-105.7237889999999965
0
LINE
8
BLACK
6
CONTINUOUS
10
109.9269850000000019
20
-105.7237889999999965
11
109.8243530000000021
21
-105.7410399999999981
0
LINE
8
BLACK
6
CONTINUOUS
10
109.8243530000000021
20
-105.7410399999999981
11
109.7117409999999893
21
-105.7469999999999999
0
LINE
8
BLACK
6
CONTINUOUS
10
109.7117409999999893
20
-105.7469999999999999
11
108.9483599999999939
21
-105.7469999999999999
0
LINE
8
BLACK
6
CONTINUOUS
10
108.9483599999999939
20
-105.7469999999999999
11
108.9483599999999939
21
-105.5381719999999888
0
LINE
8
BLACK
6
CONTINUOUS
10
108.9483599999999939
20
-105.5381719999999888
11
108.9483599999999939
21
-103.9462460000000021
0
LINE
8
BLACK
6
CONTINUOUS
10
108.9483599999999939
20
-103.9462460000000021
11
109.7224140000000006
21
-103.9462460000000021
0
LINE
8
BLACK
6
CONTINUOUS
10
109.7224140000000006
20
-103.9462460000000021
11
109.8134170000000012
21
-103.9503819999999905
0
LINE
8
BLACK
6
CONTINUOUS
10
109.2063780000000008
20
-105.5381719999999888
11
109.7066359999999889
21
-105.5381719999999888
0
LINE
8
BLACK
6
CONTINUOUS
10
109.7066359999999889
20
-105.5381719999999888
11
109.7377010000000013
21
-105.5374470000000002
0
LINE
8
BLACK
6
CONTINUOUS
10
109.7377010000000013
20
-105.5374470000000002
11
109.85474099999999
21
-105.5201739999999972
0
LINE
8
BLACK
6
CONTINUOUS
10
109.85474099999999
20
-105.5201739999999972
11
109.9593349999999958
21
-105.4802799999999934
0
LINE
8
BLACK
6
CONTINUOUS
10
109.9593349999999958
20
-105.4802799999999934
11
110.0502970000000005
21
-105.4182639999999935
0
LINE
8
BLACK
6
CONTINUOUS
10
110.0502970000000005
20
-105.4182639999999935
11
110.1264439999999922
21
-105.3346269999999976
0
LINE
8
BLACK
6
CONTINUOUS
10
110.1264439999999922
20
-105.3346269999999976
11
110.1731169999999906
21
-105.2580109999999962
0
LINE
8
BLACK
6
CONTINUOUS
10
110.1731169999999906
20
-105.2580109999999962
11
110.2102900000000005
21
-105.1697240000000022
0
LINE
8
BLACK
6
CONTINUOUS
10
110.2102900000000005
20
-105.1697240000000022
11
110.2374599999999987
21
-105.0699779999999919
0
LINE
8
BLACK
6
CONTINUOUS
10
110.2374599999999987
20
-105.0699779999999919
11
110.2541299999999893
21
-104.9589829999999893
0
LINE
8
BLACK
6
CONTINUOUS
10
110.2541299999999893
20
-104.9589829999999893
11
110.2597969999999918
21
-104.8369509999999991
0
LINE
8
BLACK
6
CONTINUOUS
10
110.2597969999999918
20
-104.8369509999999991
11
110.2591529999999977
21
-104.7951169999999905
0
LINE
8
BLACK
6
CONTINUOUS
10
110.2591529999999977
20
-104.7951169999999905
11
110.2496199999999931
21
-104.6775329999999968
0
LINE
8
BLACK
6
CONTINUOUS
10
110.2496199999999931
20
-104.6775329999999968
11
110.2290339999999986
21
-104.5718399999999946
0
LINE
8
BLACK
6
CONTINUOUS
10
110.2290339999999986
20
-104.5718399999999946
11
110.1978439999999893
21
-104.4780529999999885
0
LINE
8
BLACK
6
CONTINUOUS
10
110.1978439999999893
20
-104.4780529999999885
11
110.15649599999999
21
-104.3961869999999976
0
LINE
8
BLACK
6
CONTINUOUS
10
110.15649599999999
20
-104.3961869999999976
11
110.0863389999999953
21
-104.3056019999999933
0
LINE
8
BLACK
6
CONTINUOUS
10
110.0863389999999953
20
-104.3056019999999933
11
109.9999799999999937
21
-104.2362729999999971
0
LINE
8
BLACK
6
CONTINUOUS
10
109.9999799999999937
20
-104.2362729999999971
11
109.8984799999999922
21
-104.1882359999999892
0
LINE
8
BLACK
6
CONTINUOUS
10
109.8984799999999922
20
-104.1882359999999892
11
109.7828979999999888
21
-104.1615269999999924
0
LINE
8
BLACK
6
CONTINUOUS
10
109.7828979999999888
20
-104.1615269999999924
11
109.6876099999999923
21
-104.1555129999999991
0
LINE
8
BLACK
6
CONTINUOUS
10
109.6876099999999923
20
-104.1555129999999991
11
109.2063780000000008
21
-104.1555129999999991
0
LINE
8
BLACK
6
CONTINUOUS
10
109.2063780000000008
20
-104.1555129999999991
11
109.2063780000000008
21
-105.5381719999999888
0
LINE
8
BLACK
6
CONTINUOUS
10
113.0316359999999918
20
-105.530698000000001
11
114.0001319999999936
21
-105.530698000000001
0
LINE
8
BLACK
6
CONTINUOUS
10
114.0001319999999936
20
-105.530698000000001
11
114.0001319999999936
21
-105.7469999999999999
0
LINE
8
BLACK
6
CONTINUOUS
10
114.0001319999999936
20
-105.7469999999999999
11
112.773617999999999
21
-105.7469999999999999
0
LINE
8
BLACK
6
CONTINUOUS
10
112.773617999999999
20
-105.7469999999999999
11
112.773617999999999
21
-103.9462460000000021
0
LINE
8
BLACK
6
CONTINUOUS
10
112.773617999999999
20
-103.9462460000000021
11
113.0316359999999918
21
-103.9462460000000021
0
LINE
8
BLACK
6
CONTINUOUS
10
113.0316359999999918
20
-103.9462460000000021
11
113.0316359999999918
21
-105.530698000000001
0
LINE
8
BLACK
6
CONTINUOUS
10
199.5794259999999838
20
-90.939241999999993
11
199.5999699999999848
21
-90.9975309999999951
0
LINE
8
BLACK
6
CONTINUOUS
10
199.5999699999999848
20
-90.9975309999999951
11
199.5999999999999943
21
-91.
0
LINE
8
BLACK
6
CONTINUOUS
10
199.5999999999999943
20
-91.
11
199.5999999999999943
21
-94.
0
LINE
8
BLACK
6
CONTINUOUS
10
199.5999999999999943
20
-94.
11
199.5809019999999805
21
-94.0587790000000012
0
LINE
8
BLACK
6
CONTINUOUS
10
199.5809019999999805
20
-94.0587790000000012
11
199.5309019999999975
21
-94.0951060000000012
0
LINE
8
BLACK
6
CONTINUOUS
10
199.5309019999999975
20
-94.0951060000000012
11
199.5
21
-94.0999999999999943
0
LINE
8
BLACK
6
CONTINUOUS
10
199.5
20
-94.0999999999999943
11
197.4315670000000011
21
-94.0999999999999943
0
LINE
8
BLACK
6
CONTINUOUS
10
197.4315670000000011
20
-94.0999999999999943
11
197.3727879999999857
21
-94.0809019999999947
0
LINE
8
BLACK
6
CONTINUOUS
10
197.3727879999999857
20
-94.0809019999999947
11
197.3364609999999857
21
-94.0309019999999975
0
LINE
8
BLACK
6
CONTINUOUS
10
197.3364609999999857
20
-94.0309019999999975
11
197.3364609999999857
21
-93.9690980000000025
0
LINE
8
BLACK
6
CONTINUOUS
10
197.3364609999999857
20
-93.9690980000000025
11
197.349238999999983
21
-93.9432369999999963
0
LINE
8
BLACK
6
CONTINUOUS
10
197.349238999999983
20
-93.9432369999999963
11
199.4176719999999818
21
-90.9432369999999963
0
LINE
8
BLACK
6
CONTINUOUS
10
199.4176719999999818
20
-90.9432369999999963
11
199.4667599999999936
21
-90.9056860000000029
0
LINE
8
BLACK
6
CONTINUOUS
10
199.4667599999999936
20
-90.9056860000000029
11
199.5285439999999824
21
-90.9041599999999903
0
LINE
8
BLACK
6
CONTINUOUS
10
199.5285439999999824
20
-90.9041599999999903
11
199.5794259999999838
21
-90.939241999999993
0
LINE
8
BLACK
6
CONTINUOUS
10
203.558778999999987
20
-90.9190979999999911
11
203.595105999999987
21
-90.9690980000000025
0
LINE
8
BLACK
6
CONTINUOUS
10
203.595105999999987
20
-90.9690980000000025
11
203.5999999999999943
21
-91.
0
LINE
8
BLACK
6
CONTINUOUS
10
203.5999999999999943
20
-91.
11
203.5999999999999943
21
-94.
0
LINE
8
BLACK
6
CONTINUOUS
10
203.5999999999999943
20
-94.
11
203.5809019999999805
21
-94.0587790000000012
0
LINE
8
BLACK
6
CONTINUOUS
10
203.5809019999999805
20
-94.0587790000000012
11
203.5309019999999975
21
-94.0951060000000012
0
LINE
8
BLACK
6
CONTINUOUS
10
203.5309019999999975
20
-94.0951060000000012
11
203.5
21
-94.0999999999999943
0
LINE
8
BLACK
6
CONTINUOUS
10
203.5
20
-94.0999999999999943
11
200.5
21
-94.0999999999999943
0
LINE
8
BLACK
6
CONTINUOUS
10
200.5
20
-94.0999999999999943
11
200.4412209999999845
21
-94.0809019999999947
0
LINE
8
BLACK
6
CONTINUOUS
10
200.4412209999999845
20
-94.0809019999999947
11
200.4048939999999845
21
-94.0309019999999975
0
LINE
8
BLACK
6
CONTINUOUS
10
200.4048939999999845
20
-94.0309019999999975
11
200.4048939999999845
21
-93.9690980000000025
0
LINE
8
BLACK
6
CONTINUOUS
10
200.4048939999999845
20
-93.9690980000000025
11
200.4167949999999792
21
-93.9445300000000003
0
LINE
8
BLACK
6
CONTINUOUS
10
200.4167949999999792
20
-93.9445300000000003
11
202.4167949999999792
21
-90.9445300000000003
0
LINE
8
BLACK
6
CONTINUOUS
10
202.4167949999999792
20
-90.9445300000000003
11
202.4652899999999818
21
-90.9062169999999981
0
LINE
8
BLACK
6
CONTINUOUS
10
202.4652899999999818
20
-90.9062169999999981
11
202.5
21
-90.8999999999999915
0
LINE
8
BLACK
6
CONTINUOUS
10
202.5
20
-90.8999999999999915
11
203.5
21
-90.8999999999999915
0
LINE
8
BLACK
6
CONTINUOUS
10
203.5
20
-90.8999999999999915
11
203.558778999999987
21
-90.9190979999999911
0
LINE
8
BLACK
6
CONTINUOUS
10
202.058778999999987
20
-90.9190979999999911
11
202.095105999999987
21
-90.9690980000000025
0
LINE
8
BLACK
6
CONTINUOUS
10
202.095105999999987
20
-90.9690980000000025
11
202.095105999999987
21
-91.0309019999999975
0
LINE
8
BLACK
6
CONTINUOUS
10
202.095105999999987
20
-91.0309019999999975
11
202.0823279999999897
21
-91.0567629999999895
0
LINE
8
BLACK
6
CONTINUOUS
10
202.0823279999999897
20
-91.0567629999999895
11
200.0138949999999909
21
-94.0567629999999895
0
LINE
8
BLACK
6
CONTINUOUS
10
200.0138949999999909
20
-94.0567629999999895
11
199.9648069999999791
21
-94.0943139999999971
0
LINE
8
BLACK
6
CONTINUOUS
10
199.9648069999999791
20
-94.0943139999999971
11
199.9030229999999904
21
-94.0958399999999955
0
LINE
8
BLACK
6
CONTINUOUS
10
199.9030229999999904
20
-94.0958399999999955
11
199.8521409999999889
21
-94.0607579999999928
0
LINE
8
BLACK
6
CONTINUOUS
10
199.8521409999999889
20
-94.0607579999999928
11
199.8315969999999879
21
-94.0024689999999907
0
LINE
8
BLACK
6
CONTINUOUS
10
199.8315969999999879
20
-94.0024689999999907
11
199.8315669999999784
21
-94.
0
LINE
8
BLACK
6
CONTINUOUS
10
199.8315669999999784
20
-94.
11
199.8315669999999784
21
-91.
0
LINE
8
BLACK
6
CONTINUOUS
10
199.8315669999999784
20
-91.
11
199.8506649999999922
21
-90.9412209999999988
0
LINE
8
BLACK
6
CONTINUOUS
10
199.8506649999999922
20
-90.9412209999999988
11
199.9006650000000036
21
-90.9048939999999988
0
LINE
8
BLACK
6
CONTINUOUS
10
199.9006650000000036
20
-90.9048939999999988
11
199.9315670000000011
21
-90.8999999999999915
0
LINE
8
BLACK
6
CONTINUOUS
10
199.9315670000000011
20
-90.8999999999999915
11
202.
21
-90.8999999999999915
0
LINE
8
BLACK
6
CONTINUOUS
10
202.
20
-90.8999999999999915
11
202.058778999999987
21
-90.9190979999999911
  0
ENDSEC
  0
EOF
